<?xml version="1.0" standalone="no"?>
<!DOCTYPE svg PUBLIC "-//W3C//DTD SVG 1.1//EN" "http://www.w3.org/Graphics/SVG/1.1/DTD/svg11.dtd" >
<svg xmlns="http://www.w3.org/2000/svg">
<metadata>
<json>
<![CDATA[
{
	"fontFamily": "icomoon",
	"majorVersion": 1,
	"minorVersion": 0,
	"version": "Version 1.0",
	"fontId": "icomoon",
	"psName": "icomoon",
	"subFamily": "Regular",
	"fullName": "icomoon",
	"description": "Font generated by IcoMoon."
}
]]>
</json>
</metadata>
<defs>
<font id="icomoon" horiz-adv-x="1024">
<font-face units-per-em="1024" ascent="960" descent="-64" />
<missing-glyph horiz-adv-x="1024" />
<glyph unicode="&#x20;" horiz-adv-x="512" d="" />
<glyph unicode="&#xe900;" glyph-name="acount" data-tags="acount" d="M512.009 959.998c-282.624 0-512-229.376-512-512s229.376-511.998 512-511.998c282.624 0 512 229.374 512 511.998s-229.376 512-512 512zM696.841 635.39c54.784 0 98.816-44.032 98.816-98.816s-44.032-98.816-98.816-98.816c-54.784 0-98.816 44.032-98.816 98.816-0.512 54.784 44.032 98.816 98.816 98.816zM389.641 716.286c66.56 0 120.832-54.272 120.832-120.832s-54.272-120.832-120.832-120.832c-66.56 0-120.832 54.272-120.832 120.832 0 67.072 53.76 120.832 120.832 120.832zM389.641 248.83v-191.998c-122.88 38.398-220.16 133.118-263.168 253.95 53.76 57.344 187.904 86.528 263.168 86.528 27.136 0 61.44-4.096 97.28-11.264-83.968-44.544-97.28-103.424-97.28-137.216zM512.009 38.4c-13.824 0-27.136 0.508-40.448 2.048v208.382c0 72.704 150.528 109.056 225.28 109.056 54.784 0 149.504-19.968 196.604-58.88-59.9-152.064-207.868-260.606-381.436-260.606z" />
<glyph unicode="&#xe901;" glyph-name="apple" data-tags="apple" d="M854.682 58.441c-52.97-80.658-105.838-120.569-158.179-120.569-20.897 0-49.211 6.791-86.195 19.643-36.257 13.583-67.705 19.643-92.884 19.643-24.656 0-54.118-6.791-87.344-20.272-33.851-14.102-60.911-20.893-81.18-20.893-63.419 0-124.33 53.493-185.242 159.331-59.658 105.834-90.479 208.538-90.479 309.464 0 94.139 23.403 170.408 69.583 230.169 46.18 59.031 103.957 88.598 174.794 88.598 30.194 0 65.822-6.164 108.867-18.493 42.42-12.329 70.733-18.493 84.941-18.493 17.865 0 47.331 6.791 87.973 20.896 40.642 13.582 76.27 20.896 106.463 20.896 49.211 0 92.884-13.582 131.017-40.016 21.522-14.731 43.045-35.732 63.941-61.538-31.971-27.060-55.373-51.089-70.107-72.615-26.43-38.133-40.013-80.655-40.013-127.36 0-50.461 14.106-96.64 42.419-137.179 28.314-40.642 60.91-66.45 97.269-77.524-15.36-48.479-40.016-100.195-75.644-153.688zM681.143 850.393c-12.328-30.717-31.345-59.031-57.256-84.942-22.148-22.149-44.299-36.881-66.447-44.299-14.106-4.284-35.105-8.045-63.941-10.448 1.254 60.911 17.24 113.882 47.956 158.181s82.432 74.494 153.794 91.106c1.254-5.537 2.505-9.821 3.028-13.582 0-4.284 0.629-8.045 0.629-12.329 0.102-25.284-6.060-53.598-17.763-83.688z" />
<glyph unicode="&#xe902;" glyph-name="car" data-tags="car" d="M84.741 549.212c-91.485 46.492-80.987 98.317 10.914 92.901l20.58-38.577 42.41 131.895c16.664 51.908 44.409 98.984 98.817 98.984h542.41c54.407 0 85.739-46.159 98.903-98.9l31.828-127.896 18.329 34.495c94.485 5.499 102.902-49.408 2.917-96.818l16.249-24.912c65.736-67.572 59.572-187.053 49.326-353.945v-67.822c0-16.996-13.917-30.907-30.913-30.907h-131.896c-16.996 0-30.913 13.911-30.913 30.907v37.83h-623.396v-37.83c0-16.996-13.915-30.907-30.912-30.907h-131.895c-16.997 0-30.912 13.911-30.912 30.907v84.238c0 1.668 0.167 3.252 0.333 4.83-9.998 128.064-24.079 295.537 77.821 361.527zM253.13 345.328l-117.148 14.748c-27.662 3.083-35.077-8.582-25.662-32.411l12.665-30.745c4.082-7.916 9.499-13.664 15.831-17.664 7.415-4.583 16.331-6.832 26.246-7.249l104.483-0.833c25.246 0.083 36.161 10.165 28.245 33.328-6.499 21.746-21.329 35.411-44.659 40.827zM453.097 394.57h119.981c7.082 0 12.915-5.833 12.915-12.915s-5.832-12.915-12.915-12.915h-119.981c-7.082 0-12.914 5.832-12.914 12.915-0.084 7.082 5.749 12.915 12.914 12.915zM749.549 224.931h119.982c7.084 0 12.913-5.832 12.913-12.915s-5.828-12.914-12.913-12.914h-119.982c-7.084 0-12.913 5.832-12.913 12.914s5.745 12.915 12.913 12.915zM770.711 345.328l117.148 14.748c27.661 3.083 35.080-8.582 25.664-32.411l-12.668-30.745c-4.083-7.916-9.499-13.664-15.83-17.664-7.413-4.583-16.326-6.832-26.244-7.249l-104.48-0.833c-25.246 0.083-36.162 10.165-28.247 33.328 6.498 21.746 21.33 35.411 44.657 40.827zM153.396 224.931h119.981c7.082 0 12.915-5.832 12.915-12.915s-5.832-12.914-12.915-12.914h-119.981c-7.082 0-12.915 5.832-12.915 12.914s5.833 12.915 12.915 12.915zM160.229 574.458h723.38l-31.911 132.645c-8.746 40.411-33.908 75.405-75.402 75.405h-500.835c-41.41 0-62.656-35.911-75.404-75.405l-39.827-132.645z" />
<glyph unicode="&#xe903;" glyph-name="check-solid" data-tags="check-solid" d="M941.2 749.2c25-25 25-65.6 0-90.6l-512-512c-25-25-65.6-25-90.6 0l-256 256c-25 25-25 65.6 0 90.6s65.6 25 90.6 0l210.8-210.6 466.8 466.6c25 25 65.6 25 90.6 0z" />
<glyph unicode="&#xe906;" glyph-name="current-position" data-tags="current-position" d="M512 960c282.771 0 512-229.23 512-512s-229.229-512-512-512c-282.77 0-512 229.229-512 512s229.23 512 512 512zM512 704c-141.385 0-256-114.615-256-256 0-141.382 114.615-256 256-256 141.382 0 256 114.618 256 256 0 141.385-114.618 256-256 256z" />
<glyph unicode="&#xe909;" glyph-name="down" data-tags="down" d="M959.122 744.421l64.878-58.395-512-534.447-512 534.447 64.878 58.395 447.122-466.715 447.122 466.715z" />
<glyph unicode="&#xe90a;" glyph-name="driver" data-tags="driver" d="M512 960c-283.041 0-512-228.959-512-512s228.959-512 512-512c283.042 0 512 228.958 512 512 0 283.041-228.958 512-512 512zM512 893.507c245.803 0 445.508-199.702 445.508-445.507 0-245.803-199.706-445.508-445.508-445.508-245.804 0-445.507 199.706-445.507 445.508 0 245.804 199.702 445.507 445.507 445.507zM123.057 563.477c-10.44-42.555-16.668-82.009-16.668-119.688 320.721-67.157 269.298-138.308 328.034-394.086 25.267-4.655 50.978-7.313 77.577-7.313s52.309 2.658 77.577 7.313c58.735 255.778 7.313 326.929 328.034 394.086-1.331 41.89-6.652 85.111-16.623 119.688-187.955 46.989-289.024 70.705-388.988 70.705-99.962 0-201.032-23.716-388.943-70.705zM512 609.801c89.101 0 161.801-72.7 161.801-161.801s-72.7-161.801-161.801-161.801c-89.101 0-161.801 72.7-161.801 161.801s72.7 161.801 161.801 161.801zM512 569.905c-67.601 0-121.905-54.304-121.905-121.905s54.304-121.903 121.905-121.903c67.601 0 121.903 54.302 121.903 121.903s-54.302 121.905-121.903 121.905z" />
<glyph unicode="&#xe90b;" glyph-name="forward" data-tags="forward" d="M1012.463 633.388c15.381-15.38 15.381-40.317 0-55.698l-315.072-315.080c-15.386-15.381-40.32-15.381-55.701 0s-15.381 40.32 0 55.701l247.842 247.843h-535.070c-152.261 0-275.693-123.432-275.693-275.692v-315.081c0-21.747-17.633-39.381-39.384-39.381s-39.385 17.634-39.385 39.381v315.081c0 195.763 158.698 354.461 354.462 354.461h535.070l-247.842 247.843c-15.381 15.38-15.381 40.317 0 55.698s40.316 15.38 55.701 0l315.072-315.077z" />
<glyph unicode="&#xe90c;" glyph-name="google" data-tags="google" d="M512.037 521.344h483.368c5.328-29.78 8.046-58.203 8.046-85.369 0-96.446-20.272-182.543-60.709-258.3-40.437-75.754-98.114-135-173.034-177.631s-160.812-64.051-257.671-64.051c-69.8 0-136.254 13.477-199.367 40.331s-117.551 63.217-163.318 108.983-82.129 100.206-108.983 163.317c-26.854 63.111-40.333 129.569-40.333 199.369 0 69.797 13.479 136.254 40.333 199.365s63.217 117.551 108.983 163.318 100.206 82.129 163.318 108.983c63.113 26.854 129.567 40.333 199.367 40.333 133.328 0 247.746-44.617 343.351-133.956l-139.388-134.061c-54.649 52.872-122.672 79.308-203.963 79.308-57.366 0-110.343-14.42-159.035-43.363-48.692-28.839-87.249-68.127-115.67-117.655s-42.632-103.654-42.632-162.377c0-58.723 14.211-112.746 42.632-162.377s66.978-88.817 115.67-117.654c48.691-28.84 101.669-43.366 159.035-43.366 38.66 0 74.185 5.332 106.683 15.989s59.143 24.031 80.040 40.020c20.897 15.985 39.080 34.271 54.649 54.649 15.568 20.48 26.957 39.808 34.377 57.991 7.314 18.18 12.328 35.525 15.045 52.034h-290.794v176.172z" />
<glyph unicode="&#xe90d;" glyph-name="home" data-tags="home" d="M512 960l-512-426.581v-597.419h341.248v341.333h341.419v-341.333h341.248v597.419l-511.915 426.581z" />
<glyph unicode="&#xe90f;" glyph-name="location" data-tags="location" d="M545.31-38.663c-1.686-2.024-3.55-3.881-5.574-5.564-18.399-15.287-45.728-12.795-61.046 5.564-237.857 285.096-356.785 493.427-356.785 625.003 0 206.369 183.315 373.663 390.095 373.663s390.095-167.294 390.095-373.663c0-131.577-118.925-339.907-356.785-625.003zM815.406 586.34c0 154.643-140.454 287.148-303.406 287.148s-303.407-132.506-303.407-287.148c0-99.107 100.493-280.159 303.407-529.25 202.913 249.090 303.406 430.142 303.406 529.25zM512 484.171c-47.878 0-86.688 38.733-86.688 86.515s38.81 86.515 86.688 86.515 86.688-38.734 86.688-86.515c0-47.782-38.81-86.515-86.688-86.515z" />
<glyph unicode="&#xe910;" glyph-name="logo" data-tags="logo" d="M712.74 220.194l98.115 50.785v-101.57l-98.115 50.785zM311.26 220.194l-101.498-50.785v101.57l101.498-50.785zM631.542 398.379c0 108.374 87.856 196.229 196.229 196.229s196.229-87.855 196.229-196.229c0-108.374-87.856-196.229-196.229-196.229v45.11l-196.229 151.119zM827.771 549.498c-83.463 0-151.119-67.658-151.119-151.119h-45.11l196.229-151.119c83.463 0 151.119 67.658 151.119 151.119s-67.656 151.119-151.119 151.119zM631.542 725.427h45.11v-509.744h-45.11v509.744zM424.036 405.145c27.066 22.555 66.844 57.849 81.198 76.687s29.732 32.321 36.192 48.289c6.636 15.968 9.956 32.564 9.956 49.788 0 20.992-4.935 39.292-14.801 54.901-9.69 15.789-23.056 28.078-40.098 36.87-17.047 8.791-36.246 13.187-57.594 13.187-22.606 0-42.432-4.844-59.476-14.532-16.865-9.689-30.959-22.451-39.292-39.83-8.56-17.852-13.071-31.385-13.071-31.385l-42.855 22.555c0 0 2.256 6.767 14.75 31.705 14.174 23.683 33.461 42.252 57.861 55.709 24.58 13.456 52.389 20.184 83.428 20.184 30.68 0 57.949-6.638 81.813-19.915 23.863-13.097 42.611-30.949 56.248-53.555s20.453-47.904 20.453-75.893c0-20.274-3.586-39.92-10.763-58.938-7.001-19.018-22.672-38.369-39.895-61.694s-92.476-87.965-124.052-117.286v63.154zM196.229 202.15c-108.374 0-196.229 87.855-196.229 196.229s87.855 196.229 196.229 196.229c108.374 0 196.229-87.855 196.229-196.229v-137.586h202.996v-45.11h-248.106v182.696l-151.119-196.229zM45.11 398.379c0-83.461 67.658-151.119 151.119-151.119v-45.11l151.119 196.229c0 83.461-67.658 151.119-151.119 151.119s-151.119-67.658-151.119-151.119z" />
<glyph unicode="&#xe911;" glyph-name="logo_text" data-tags="logo_text" d="M712.74 278.837l98.115 50.785v-101.57l-98.115 50.785zM311.26 278.837l-101.498-50.785v101.57l101.498-50.785zM631.542 457.022c0 108.374 87.856 196.229 196.229 196.229s196.229-87.855 196.229-196.229c0-108.374-87.856-196.229-196.229-196.229v45.11l-196.229 151.119zM827.771 608.141c-83.463 0-151.119-67.658-151.119-151.119h-45.11l196.229-151.119c83.463 0 151.119 67.658 151.119 151.119s-67.656 151.119-151.119 151.119zM631.542 784.070h45.11v-509.744h-45.11v509.744zM424.036 463.789c27.066 22.555 66.844 57.849 81.198 76.687s29.732 32.321 36.192 48.289c6.636 15.968 9.956 32.564 9.956 49.788 0 20.992-4.935 39.292-14.801 54.901-9.69 15.789-23.056 28.078-40.098 36.87-17.047 8.791-36.246 13.187-57.594 13.187-22.606 0-42.432-4.844-59.476-14.532-16.865-9.689-30.959-22.451-39.292-39.83-8.56-17.852-13.071-31.385-13.071-31.385l-42.855 22.555c0 0 2.256 6.767 14.75 31.705 14.174 23.683 33.461 42.252 57.861 55.709 24.58 13.456 52.389 20.184 83.428 20.184 30.68 0 57.949-6.638 81.813-19.915 23.863-13.097 42.611-30.949 56.248-53.555s20.453-47.904 20.453-75.893c0-20.274-3.586-39.92-10.763-58.938-7.001-19.018-22.672-38.369-39.895-61.694s-92.476-87.965-124.052-117.286v63.154zM196.229 260.793c-108.374 0-196.229 87.855-196.229 196.229s87.855 196.229 196.229 196.229c108.374 0 196.229-87.855 196.229-196.229v-137.586h202.996v-45.11h-248.106v182.696l-151.119-196.229zM45.11 457.022c0-83.461 67.658-151.119 151.119-151.119v-45.11l151.119 196.229c0 83.461-67.658 151.119-151.119 151.119s-151.119-67.658-151.119-151.119zM6.369 193.714v-66.375h-6.369v66.375h6.369zM52.974 193.714l-32.52-30.404-16.363-14.178-0.621 6.243 13.153 12.035 28.377 26.304h7.975zM47.692 127.339l-31.743 34.099 3.832 4.516 35.626-38.614h-7.716zM71.719 197.364v-70.024h-6.162v70.024h6.162zM70.321 155.059l-2.745 1.367c0.207 2.919 0.88 5.652 2.020 8.206s2.675 4.8 4.608 6.748c1.968 1.944 4.263 3.464 6.887 4.556 2.658 1.096 5.593 1.642 8.803 1.642 2.796 0 5.299-0.334 7.509-1.001 2.209-0.672 4.091-1.732 5.644-3.194 1.554-1.457 2.727-3.329 3.521-5.607 0.828-2.278 1.243-5.061 1.243-8.341v-32.096h-6.214v32.141c0 3.401-0.535 6.063-1.605 7.975-1.070 1.949-2.589 3.329-4.557 4.15s-4.298 1.232-6.991 1.232c-2.969 0-5.575-0.577-7.819-1.732-2.209-1.123-4.073-2.598-5.592-4.421-1.485-1.795-2.624-3.726-3.418-5.792-0.794-2.034-1.226-3.979-1.295-5.833zM120.343 151.229v1.502c0 3.586 0.587 6.902 1.761 9.938 1.174 3.040 2.848 5.67 5.023 7.89 2.209 2.215 4.85 3.934 7.923 5.152 3.072 1.245 6.49 1.868 10.253 1.868 3.797 0 7.232-0.623 10.305-1.868 3.072-1.218 5.714-2.937 7.923-5.152 2.209-2.219 3.901-4.849 5.075-7.89 1.174-3.036 1.761-6.352 1.761-9.938v-1.502c0-3.586-0.587-6.902-1.761-9.938-1.174-3.009-2.865-5.625-5.075-7.845-2.175-2.215-4.798-3.947-7.871-5.197-3.072-1.213-6.49-1.822-10.253-1.822-3.797 0-7.232 0.609-10.305 1.822-3.072 1.25-5.714 2.982-7.923 5.197-2.209 2.219-3.901 4.836-5.075 7.845-1.174 3.036-1.761 6.352-1.761 9.938zM126.505 152.732v-1.502c0-2.707 0.415-5.273 1.243-7.705 0.829-2.4 2.037-4.543 3.625-6.428 1.588-1.854 3.556-3.311 5.903-4.376s5.057-1.597 8.13-1.597c3.038 0 5.714 0.532 8.026 1.597 2.348 1.065 4.315 2.522 5.903 4.376 1.588 1.886 2.779 4.028 3.573 6.428 0.828 2.431 1.243 4.998 1.243 7.705v1.502c0 2.675-0.415 5.215-1.243 7.615-0.794 2.4-2.002 4.543-3.625 6.428-1.588 1.886-3.556 3.374-5.903 4.466-2.348 1.096-5.040 1.642-8.078 1.642s-5.731-0.546-8.078-1.642c-2.313-1.092-4.281-2.58-5.903-4.466-1.588-1.886-2.796-4.028-3.625-6.428-0.794-2.4-1.191-4.94-1.191-7.615zM147.166 196.818l12.48-11.72v-0.456h-5.748l-8.699 8.3-8.648-8.3h-5.593v0.55l12.273 11.625h3.935zM189.369 166.134v-38.795h-6.162v49.328h5.903l0.259-10.533zM187.971 155.059l-2.745 1.367c0.207 2.919 0.88 5.652 2.020 8.206s2.675 4.8 4.608 6.748c1.968 1.944 4.263 3.464 6.887 4.556 2.658 1.096 5.593 1.642 8.803 1.642 2.796 0 5.299-0.334 7.509-1.001 2.209-0.672 4.091-1.732 5.644-3.194 1.554-1.457 2.727-3.329 3.521-5.607 0.828-2.278 1.243-5.061 1.243-8.341v-32.096h-6.214v32.141c0 3.401-0.535 6.063-1.605 7.975-1.070 1.949-2.589 3.329-4.557 4.15s-4.298 1.232-6.991 1.232c-2.969 0-5.575-0.577-7.819-1.732-2.209-1.123-4.073-2.598-5.592-4.421-1.485-1.795-2.624-3.726-3.418-5.792-0.794-2.034-1.226-3.979-1.295-5.833zM278.383 176.667h5.747v-48.462c0-4.285-0.932-7.962-2.796-11.029-1.83-3.072-4.436-5.427-7.819-7.069-3.349-1.642-7.301-2.459-11.858-2.459-2.313 0-4.695 0.316-7.146 0.956-2.417 0.604-4.712 1.547-6.887 2.824-2.14 1.25-3.97 2.797-5.489 4.651l3.469 3.329c2.278-2.431 4.712-4.209 7.301-5.337 2.589-1.155 5.386-1.732 8.389-1.732 3.556 0 6.559 0.627 9.010 1.872 2.486 1.245 4.367 3.036 5.644 5.377 1.312 2.341 1.968 5.152 1.968 8.436v37.793l0.466 10.849zM239.028 151.5v0.961c0 3.825 0.484 7.276 1.45 10.348 1.001 3.099 2.434 5.743 4.298 7.93 1.864 2.219 4.125 3.907 6.784 5.061 2.693 1.186 5.73 1.777 9.114 1.777 3.245 0 6.128-0.469 8.648-1.412s4.695-2.296 6.525-4.060c1.83-1.764 3.297-3.857 4.401-6.288 1.139-2.431 1.968-5.138 2.486-8.115v-12.171c-0.414-2.797-1.174-5.368-2.279-7.705-1.105-2.31-2.572-4.331-4.401-6.063-1.83-1.705-4.039-3.027-6.628-3.97-2.555-0.911-5.506-1.367-8.855-1.367s-6.352 0.609-9.010 1.822c-2.658 1.218-4.92 2.937-6.784 5.152-1.864 2.251-3.297 4.908-4.298 7.98-0.966 3.067-1.45 6.442-1.45 10.118zM245.242 152.461v-0.961c0-2.887 0.328-5.562 0.984-8.021 0.656-2.463 1.657-4.606 3.003-6.428s3.055-3.252 5.126-4.285c2.071-1.033 4.505-1.552 7.302-1.552 3.556 0 6.542 0.595 8.958 1.777 2.417 1.218 4.332 2.815 5.748 4.791 1.415 2.003 2.451 4.191 3.107 6.564v14.178c-0.38 1.61-0.967 3.252-1.761 4.922-0.759 1.674-1.83 3.207-3.21 4.606-1.346 1.425-3.072 2.567-5.178 3.419-2.071 0.88-4.591 1.322-7.56 1.322-2.831 0-5.299-0.519-7.405-1.552-2.071-1.033-3.78-2.477-5.126-4.331-1.347-1.822-2.348-3.965-3.003-6.428-0.656-2.459-0.984-5.134-0.984-8.021zM346.892 131.124c2.624 0 5.074 0.424 7.353 1.277 2.313 0.88 4.211 2.174 5.696 3.875 1.519 1.732 2.382 3.843 2.589 6.338h5.903c-0.173-3.131-1.26-5.927-3.262-8.39-1.968-2.431-4.557-4.344-7.768-5.743-3.176-1.367-6.68-2.053-10.512-2.053-3.901 0-7.353 0.623-10.357 1.868-2.969 1.25-5.454 2.982-7.457 5.201-2.002 2.246-3.521 4.863-4.557 7.84-1.001 3.009-1.502 6.243-1.502 9.708v1.917c0 3.464 0.5 6.685 1.502 9.663 1.036 3.009 2.555 5.625 4.557 7.84 2.002 2.251 4.488 3.997 7.457 5.246 2.969 1.245 6.404 1.868 10.305 1.868 4.004 0 7.595-0.713 10.77-2.143 3.211-1.43 5.766-3.451 7.664-6.063 1.933-2.616 2.986-5.715 3.159-9.302h-5.903c-0.173 2.643-0.967 4.926-2.382 6.839-1.415 1.917-3.28 3.388-5.592 4.421s-4.885 1.552-7.716 1.552c-3.176 0-5.886-0.546-8.13-1.642-2.244-1.065-4.074-2.535-5.489-4.421-1.381-1.854-2.399-3.983-3.055-6.383-0.656-2.368-0.984-4.863-0.984-7.475v-1.917c0-2.643 0.311-5.165 0.932-7.565 0.656-2.373 1.674-4.484 3.055-6.338 1.416-1.854 3.245-3.329 5.489-4.421 2.279-1.065 5.023-1.597 8.234-1.597zM387.075 197.364v-70.024h-6.162v70.024h6.162zM385.676 155.059l-2.745 1.367c0.208 2.919 0.881 5.652 2.020 8.206s2.675 4.8 4.609 6.748c1.968 1.944 4.263 3.464 6.887 4.556 2.658 1.096 5.592 1.642 8.803 1.642 2.796 0 5.299-0.334 7.508-1.001 2.209-0.672 4.091-1.732 5.645-3.194 1.553-1.457 2.727-3.329 3.521-5.607 0.829-2.278 1.243-5.061 1.243-8.341v-32.096h-6.214v32.141c0 3.401-0.535 6.063-1.605 7.975-1.070 1.949-2.589 3.329-4.557 4.15s-4.298 1.232-6.991 1.232c-2.969 0-5.575-0.577-7.819-1.732-2.209-1.123-4.073-2.598-5.593-4.421-1.484-1.795-2.624-3.726-3.418-5.792-0.794-2.034-1.226-3.979-1.295-5.833zM445.9 176.667v-49.328h-6.162v49.328h6.162zM445.33 184.327h-4.66l-0.052 5.743c2.037 0.122 3.676 0.334 4.919 0.636 1.278 0.307 2.209 0.744 2.796 1.322 0.622 0.609 0.932 1.385 0.932 2.328 0 0.821-0.293 1.489-0.88 2.007-0.587 0.546-1.381 0.988-2.382 1.322-1.001 0.361-2.123 0.604-3.366 0.726-1.243 0.153-2.503 0.23-3.78 0.23l0.363 3.51c2.348 0 4.453-0.18 6.317-0.546 1.899-0.334 3.504-0.853 4.816-1.552 1.348-0.699 2.363-1.534 3.054-2.508 0.69-0.97 1.038-2.066 1.038-3.28 0-2.373-0.916-4.105-2.743-5.197-1.832-1.065-3.955-1.705-6.371-1.917v-2.824zM495.508 197.364v-70.024h-6.162v70.024h6.162zM546.514 136.185v25.438c0 2.341-0.555 4.362-1.656 6.063-1.105 1.701-2.729 3.009-4.872 3.92-2.138 0.911-4.777 1.367-7.921 1.367-2.901 0-5.49-0.456-7.768-1.367-2.242-0.88-4.019-2.080-5.332-3.6-1.277-1.489-1.917-3.149-1.917-4.971l-6.212 0.045c0 1.854 0.519 3.649 1.552 5.382 1.038 1.732 2.504 3.28 4.403 4.651 1.899 1.367 4.159 2.445 6.785 3.234 2.657 0.821 5.576 1.232 8.751 1.232 4.001 0 7.524-0.591 10.56-1.777 3.072-1.186 5.472-2.964 7.2-5.337 1.728-2.368 2.589-5.346 2.589-8.932v-23.845c0-1.701 0.135-3.464 0.415-5.287 0.311-1.822 0.74-3.329 1.295-4.511v-0.55h-6.577c-0.415 1.096-0.744 2.463-0.983 4.105-0.208 1.669-0.311 3.252-0.311 4.741zM547.962 156.061l0.104-4.195h-12.166c-3.176 0-6.027-0.257-8.544-0.776-2.486-0.483-4.592-1.213-6.32-2.188-1.728-0.943-3.054-2.080-3.988-3.419-0.898-1.335-1.344-2.855-1.344-4.556 0-1.764 0.501-3.374 1.502-4.831 1.033-1.462 2.486-2.63 4.349-3.514 1.899-0.848 4.141-1.277 6.73-1.277 3.451 0 6.491 0.564 9.117 1.687 2.657 1.128 4.849 2.598 6.573 4.425 1.728 1.822 2.883 3.812 3.469 5.973l2.693-3.149c-0.447-1.52-1.277-3.086-2.486-4.696-1.173-1.579-2.707-3.067-4.606-4.466-1.899-1.367-4.146-2.495-6.735-3.374-2.553-0.853-5.454-1.277-8.697-1.277-3.658 0-6.852 0.609-9.581 1.822-2.693 1.218-4.795 2.874-6.315 4.971-1.484 2.129-2.228 4.529-2.228 7.204 0 2.431 0.586 4.601 1.764 6.518 1.173 1.944 2.864 3.586 5.075 4.922 2.242 1.367 4.935 2.4 8.075 3.099 3.176 0.731 6.735 1.096 10.669 1.096h12.892zM528.285 197.318l9.839-12.766h-5.594l-11.751 12.766h7.506zM615.848 131.124c2.625 0 5.075 0.424 7.353 1.277 2.314 0.88 4.213 2.174 5.697 3.875 1.52 1.732 2.382 3.843 2.589 6.338h5.905c-0.176-3.131-1.263-5.927-3.261-8.39-1.971-2.431-4.561-4.344-7.768-5.743-3.176-1.367-6.681-2.053-10.515-2.053-3.898 0-7.353 0.623-10.353 1.868-2.973 1.25-5.458 2.982-7.457 5.201-2.003 2.246-3.523 4.863-4.561 7.84-0.997 3.009-1.498 6.243-1.498 9.708v1.917c0 3.464 0.501 6.685 1.498 9.663 1.038 3.009 2.558 5.625 4.561 7.84 1.998 2.251 4.484 3.997 7.457 5.246 2.968 1.245 6.401 1.868 10.303 1.868 4.006 0 7.597-0.713 10.772-2.143 3.207-1.43 5.765-3.451 7.664-6.063 1.931-2.616 2.982-5.715 3.158-9.302h-5.905c-0.171 2.643-0.965 4.926-2.382 6.839-1.416 1.917-3.28 3.388-5.594 4.421-2.31 1.033-4.885 1.552-7.714 1.552-3.176 0-5.887-0.546-8.129-1.642-2.246-1.065-4.073-2.535-5.49-4.421-1.38-1.854-2.4-3.983-3.054-6.383-0.659-2.368-0.983-4.863-0.983-7.475v-1.917c0-2.643 0.307-5.165 0.929-7.565 0.659-2.373 1.674-4.484 3.054-6.338 1.416-1.854 3.248-3.329 5.49-4.421 2.278-1.065 5.025-1.597 8.233-1.597zM656.032 197.364v-70.024h-6.162v70.024h6.162zM654.634 155.059l-2.743 1.367c0.208 2.919 0.88 5.652 2.021 8.206 1.137 2.553 2.675 4.8 4.606 6.748 1.967 1.944 4.263 3.464 6.888 4.556 2.657 1.096 5.594 1.642 8.801 1.642 2.797 0 5.3-0.334 7.511-1.001 2.21-0.672 4.091-1.732 5.643-3.194 1.552-1.457 2.729-3.329 3.523-5.607 0.826-2.278 1.241-5.061 1.241-8.341v-32.096h-6.212v32.141c0 3.401-0.537 6.063-1.606 7.975-1.069 1.949-2.589 3.329-4.556 4.15-1.971 0.821-4.299 1.232-6.992 1.232-2.968 0-5.576-0.577-7.818-1.732-2.21-1.123-4.073-2.598-5.594-4.421-1.484-1.795-2.625-3.726-3.419-5.792-0.794-2.034-1.222-3.979-1.295-5.833zM743.961 138.738v37.929h6.212v-49.328h-5.955l-0.257 11.399zM745.098 147.855l3.212 0.090c0-3.099-0.415-5.955-1.241-8.571-0.83-2.612-2.125-4.89-3.884-6.839-1.764-1.944-4.042-3.446-6.839-4.511-2.792-1.065-6.162-1.597-10.096-1.597-2.729 0-5.228 0.334-7.511 1.001-2.242 0.699-4.177 1.795-5.797 3.284-1.624 1.489-2.883 3.419-3.78 5.792-0.862 2.368-1.295 5.242-1.295 8.616v31.546h6.162v-31.64c0-2.643 0.329-4.845 0.983-6.609 0.69-1.764 1.624-3.176 2.797-4.24 1.209-1.065 2.589-1.822 4.141-2.278 1.556-0.456 3.23-0.686 5.025-0.686 4.556 0 8.147 0.776 10.768 2.328 2.661 1.547 4.543 3.586 5.648 6.108 1.137 2.553 1.705 5.287 1.705 8.206zM783.004 132.265l17.453 44.402h6.676l-23.714-57.258c-0.483-1.123-1.105-2.373-1.863-3.74-0.726-1.367-1.692-2.675-2.901-3.92-1.173-1.277-2.657-2.31-4.452-3.099-1.764-0.821-3.92-1.232-6.473-1.232-0.659 0-1.502 0.077-2.54 0.23-1.001 0.117-1.723 0.239-2.174 0.361l-0.050 4.606c0.379-0.090 0.929-0.167 1.656-0.226 0.726-0.063 1.227-0.095 1.502-0.095 2.242 0 4.123 0.334 5.643 1.006 1.552 0.668 2.846 1.669 3.884 3.009 1.038 1.304 1.949 2.946 2.743 4.922l4.61 11.034zM766.692 176.667l17.864-42.354 1.66-5.697-4.507-2.233-21.748 50.284h6.73zM837.74 126.428c-3.663 0-7.028 0.595-10.1 1.777-3.036 1.186-5.697 2.86-7.975 5.016-2.242 2.156-3.988 4.709-5.228 7.66-1.209 2.977-1.813 6.23-1.813 9.753v1.962c0 3.798 0.641 7.231 1.917 10.303 1.277 3.067 3.036 5.697 5.282 7.885 2.242 2.188 4.795 3.861 7.664 5.016 2.901 1.186 5.936 1.777 9.112 1.777 3.555 0 6.712-0.564 9.478-1.687 2.761-1.096 5.075-2.657 6.938-4.696 1.899-2.007 3.329-4.389 4.299-7.159 0.965-2.734 1.448-5.756 1.448-9.072v-3.325h-42.408v4.646h36.246v0.641c-0.068 2.765-0.708 5.35-1.917 7.75-1.173 2.431-2.932 4.407-5.282 5.927-2.346 1.52-5.278 2.278-8.801 2.278-2.625 0-5.039-0.487-7.249-1.457-2.174-0.974-4.055-2.373-5.643-4.195-1.556-1.795-2.765-3.938-3.627-6.428-0.83-2.463-1.241-5.197-1.241-8.206v-1.962c0-2.734 0.447-5.287 1.344-7.655 0.934-2.341 2.246-4.407 3.938-6.203 1.723-1.791 3.762-3.189 6.108-4.195 2.346-1.001 4.935-1.502 7.768-1.502 3.316 0 6.248 0.532 8.801 1.597 2.558 1.092 4.854 2.81 6.888 5.152l3.884-2.648c-1.209-1.579-2.729-3.036-4.556-4.376-1.795-1.335-3.952-2.4-6.473-3.189s-5.454-1.186-8.801-1.186zM820.238 183.506l13.925 11.029h6.009l13.98-11.029h-7.299l-9.685 7.84-9.681-7.84h-7.249zM850.89 191.116l7.615 10.533h7.091l-9.424-10.533h-5.282zM877.144 166.134v-38.795h-6.162v49.328h5.905l0.257-10.533zM875.746 155.059l-2.743 1.367c0.208 2.919 0.88 5.652 2.021 8.206 1.137 2.553 2.675 4.8 4.606 6.748 1.967 1.944 4.263 3.464 6.888 4.556 2.657 1.096 5.594 1.642 8.801 1.642 2.797 0 5.3-0.334 7.511-1.001 2.21-0.672 4.091-1.732 5.643-3.194 1.552-1.457 2.729-3.329 3.523-5.607 0.826-2.278 1.241-5.061 1.241-8.341v-32.096h-6.212v32.141c0 3.401-0.537 6.063-1.606 7.975-1.069 1.949-2.589 3.329-4.556 4.15-1.971 0.821-4.299 1.232-6.992 1.232-2.968 0-5.576-0.577-7.818-1.732-2.21-1.123-4.073-2.598-5.594-4.421-1.484-1.795-2.625-3.726-3.419-5.792-0.794-2.034-1.222-3.979-1.295-5.833zM991.584 136.912v60.452h6.216v-70.024h-5.801l-0.415 9.572zM952.694 151.5v0.961c0 3.825 0.501 7.276 1.502 10.348 1.001 3.099 2.436 5.743 4.299 7.93 1.899 2.219 4.177 3.907 6.834 5.061 2.657 1.186 5.661 1.777 9.013 1.777 3.28 0 6.176-0.469 8.697-1.412s4.678-2.296 6.473-4.060c1.827-1.764 3.298-3.857 4.403-6.288 1.137-2.431 1.967-5.138 2.486-8.115v-12.171c-0.415-2.797-1.177-5.368-2.278-7.705-1.105-2.31-2.576-4.331-4.403-6.063-1.831-1.705-4.042-3.027-6.631-3.97-2.553-0.911-5.503-1.367-8.851-1.367-3.316 0-6.302 0.609-8.959 1.822-2.661 1.218-4.922 2.937-6.785 5.152-1.863 2.251-3.298 4.908-4.299 7.98-1.001 3.067-1.502 6.442-1.502 10.118zM958.911 152.461v-0.961c0-2.887 0.325-5.562 0.983-8.021 0.654-2.463 1.656-4.606 3.004-6.428 1.344-1.822 3.054-3.252 5.125-4.285s4.525-1.552 7.353-1.552c3.555 0 6.541 0.595 8.959 1.777 2.418 1.218 4.349 2.815 5.801 4.791 1.448 2.003 2.499 4.191 3.158 6.564v14.178c-0.415 1.61-1.019 3.252-1.813 4.922-0.794 1.674-1.881 3.207-3.261 4.606-1.349 1.425-3.072 2.567-5.179 3.419-2.071 0.88-4.592 1.322-7.56 1.322-2.864 0-5.332-0.519-7.403-1.552-2.075-1.033-3.798-2.477-5.179-4.331-1.349-1.822-2.35-3.965-3.004-6.428-0.659-2.459-0.983-5.134-0.983-8.021zM1006.809 189.339v-4.696h-31.69v4.696h31.69zM1022.759 176.667v-49.328h-6.167v49.328h6.167zM1015.506 190.935c0 1.033 0.365 1.899 1.087 2.598 0.762 0.731 1.795 1.096 3.108 1.096s2.35-0.365 3.108-1.096c0.794-0.699 1.191-1.565 1.191-2.598 0-1.001-0.397-1.868-1.191-2.598-0.758-0.699-1.795-1.051-3.108-1.051s-2.346 0.352-3.108 1.051c-0.722 0.731-1.087 1.597-1.087 2.598z" />
<glyph unicode="&#xe912;" glyph-name="message" data-tags="message" d="M200.348 122.758l32.934-8.966c3.525 12.947-0.863 26.758-11.213 35.296l-21.721-26.33zM158.795-29.869l-32.935 8.966c-3.494-12.838 0.786-26.528 10.968-35.091s24.41-10.426 36.454-4.781l-14.486 30.906zM325.009 48.045l12.85 31.622c-8.814 3.584-18.723 3.322-27.338-0.717l14.488-30.906zM443.734 516.266l20.48 27.307-19.988 14.991-20.331-14.523 19.839-27.775zM580.268 413.866l-20.48-27.307 21.595-16.196 20.737 17.281-21.852 26.222zM512.001 960c-281.356 0-512.001-218.521-512.001-491.224h68.267c0 232.175 197.192 422.957 443.734 422.957v68.267zM0 468.776c0-149.404 69.807-282.581 178.627-372.348l43.443 52.659c-94.377 77.856-153.802 192.262-153.802 319.688h-68.267zM167.413 131.725l-41.553-152.627 65.869-17.926 41.553 152.621-65.869 17.933zM173.281-60.774l166.216 77.914-28.975 61.811-166.214-77.914 28.974-61.811zM312.159 16.422c61.47-24.979 128.989-38.867 199.841-38.867v68.262c-61.871 0-120.674 12.128-174.141 33.85l-25.7-63.245zM512.001-22.445c281.356 0 511.999 218.522 511.999 491.221h-68.269c0-232.175-197.19-422.959-443.731-422.959v-68.262zM1024 468.776c0 272.703-230.643 491.224-511.999 491.224v-68.267c246.54 0 443.731-190.782 443.731-422.957h68.269zM224.64 317.824l238.934 170.666-39.679 55.551-238.934-170.667 39.679-55.551zM423.254 488.959l136.534-102.4 40.96 54.613-136.534 102.401-40.96-54.614zM602.119 387.644l204.799 170.667-43.706 52.444-204.797-170.667 43.703-52.444z" />
<glyph unicode="&#xe913;" glyph-name="next" data-tags="next" d="M246.975-18.835l473.489 466.835-473.595 466.941c-10.491 10.344-10.491 27.061 0 37.301 10.491 10.344 27.447 10.344 37.832 0l492.564-485.539c10.492-10.344 10.492-27.062 0-37.301l-492.457-485.647c-10.491-10.342-27.447-10.342-37.832 0-10.491 10.349-10.491 27.061 0 37.41z" />
<glyph unicode="&#xe914;" glyph-name="note" data-tags="note" d="M1023.757 26.592v-89.683l-718.577 0.55 100.552 89.133h618.025zM862.426 960c35.232 0 53.51-2.755 101.491-42.941 48.979-41.041 57.798-73.028 59.853-108.645 2.176-38.329-10.765-84.879-46.72-121.308l-682.474-682.472c-11.104-10.144-13.453-9.587-20.863-11.808l-218.358-54.579c-31.432-6.381-60.942 22.4-54.451 54.432l54.6 218.355c2.135 7.136 2.84 11.040 11.809 20.864 228.394 228.394 452.582 461.080 685.224 685.161 30.342 28.507 74.675 42.941 109.888 42.941zM862.426 871.533c-18.368-0.342-36.262-7.922-49.35-20.841l-673.482-673.502-33.439-133.696 133.714 33.421c225.149 225.146 457.366 443.464 675.402 675.489 35.744 38.97 9.485 116.439-49.242 119.087-1.19 0.043-2.387 0.065-3.603 0.043z" />
<glyph unicode="&#xe915;" glyph-name="notification" data-tags="notification" horiz-adv-x="960" d="M808.048 249.398v316.611c0 164.883-119.322 301.608-276.186 329.434v25.165c0 21.765-17.664 39.392-39.392 39.392h-39.392c-21.766 0-39.392-17.626-39.392-39.392v-25.276c-156.569-28.121-275.409-164.736-275.409-329.323v-316.611l-138.277-111.933v-63.891h945.622v63.891l-137.574 111.933zM906.157 113.005h-866.802v5.69l138.277 111.93v335.421c0 162.963 132.55 295.513 295.513 295.513 162.925 0 295.51-132.55 295.51-295.513v-335.347l137.501-111.93v-5.763zM472.704-64c54.432 0 98.627 44.048 98.627 98.515h-197.142c0.035-54.432 44.157-98.515 98.55-98.515h-0.035z" />
<glyph unicode="&#xe916;" glyph-name="patery" data-tags="patery" d="M921.6 550.4v85.504c-0.133 18.019-7.352 35.262-20.091 48.003-12.744 12.742-29.988 19.959-48.005 20.093h-784.896c-18.108 0.001-35.481-7.158-48.333-19.913s-20.14-30.075-20.275-48.183v-375.296c-0.001-18.107 7.158-35.481 19.913-48.333s30.075-20.14 48.183-20.275h785.408c18.017 0.134 35.261 7.351 48.005 20.093 12.739 12.742 19.958 29.984 20.091 48.003v85.504h102.4v204.8h-102.4zM486.4 396.8v-102.4l-384 204.8h281.6v102.4l384-204.8h-281.6z" />
<glyph unicode="&#xe919;" glyph-name="prev" data-tags="prev" horiz-adv-x="544" d="M530.598 914.829l-466.837-466.835 466.942-466.944c10.342-10.342 10.342-27.059 0-37.299-10.346-10.346-27.062-10.346-37.302 0l-485.644 485.539c-10.344 10.342-10.344 27.062 0 37.302l485.538 485.642c10.346 10.344 27.062 10.344 37.302 0 10.342-10.344 10.342-27.061 0-37.405z" />
<glyph unicode="&#xe91b;" glyph-name="security" data-tags="security" d="M972.813 732.699l-1.363 32.071-31.93 3.279c-122.656 12.597-228.102 58.369-294.966 94.548-73.231 39.626-117.622 76.803-118.029 77.146l-23.973 20.256-23.989-20.227c-0.441-0.371-44.831-37.549-118.061-77.174-66.862-36.18-172.307-81.952-294.964-94.548l-31.933-3.279-1.363-32.072c-0.244-5.741-5.374-142.525 47.313-308.157 31.090-97.741 75.987-185.317 133.446-260.3 72.152-94.157 164.18-168.378 273.53-220.602l15.997-7.642 15.997 7.642c109.35 52.224 201.379 126.438 273.533 220.602 57.459 74.982 102.355 162.559 133.446 260.298 52.685 165.631 47.552 302.415 47.309 308.157zM502.527 18.522c-91.226 46.355-168.435 110.112-229.702 189.715-52.189 67.802-93.157 147.359-121.77 236.456-34.972 108.901-42.815 206.022-44.402 253.713 49.198 7.305 98.936 19.597 148.301 36.669 48.259 16.689 96.291 37.968 142.76 63.244 47.151 25.646 83.030 50.141 104.811 66.159 21.781-16.017 57.661-40.513 104.812-66.159 46.47-25.277 94.499-46.555 142.761-63.244 49.376-17.078 99.13-29.37 148.346-36.675-1.53-47.222-9.222-142.975-43.699-251.356-28.48-89.537-69.402-169.496-121.626-237.649-61.411-80.141-138.924-144.294-230.593-190.874zM704.858 616.881l-244.831-244.834-111.137 111.136-52.499-52.5 163.636-163.636 297.331 297.334-52.499 52.5z" />
<glyph unicode="&#xe91c;" glyph-name="start" data-tags="start" d="M972.502 560.944c-5.558 17.026-21.327 28.492-39.266 28.492h-310.662l-95.967 295.526c-5.618 17.027-21.383 28.492-39.327 28.492-17.886 0-33.709-11.465-39.269-28.549l-96.024-295.468h-310.66c-17.943 0-33.709-11.466-39.27-28.492s0.401-35.601 14.963-46.206l251.383-182.647-96.024-295.526c-5.561-17.084 0.573-35.658 15.135-46.149 7.223-5.217 15.708-7.862 24.192-7.862 8.485 0 16.97 2.645 24.25 7.919l251.326 182.589 251.269-182.589c14.504-10.544 34.053-10.544 48.557-0.058 14.561 10.49 20.637 29.065 15.077 46.206l-96.024 295.47 251.439 182.646c14.504 10.606 20.527 29.18 14.904 46.207z" />
<glyph unicode="&#xe91d;" glyph-name="start-boder" data-tags="start-boder" d="M709.019 371.638c-14.447-10.548-20.466-29.066-14.963-46.207l84.331-259.586-220.832 160.464c-14.56 10.548-34.053 10.548-48.557 0l-220.831-160.464 84.389 259.7c5.503 17.026-0.517 35.544-15.021 46.092l-220.888 160.465h273c17.944 0 33.767 11.523 39.27 28.549l84.389 259.644 84.331-259.586c2.668-8.315 7.91-15.568 14.968-20.709s15.569-7.908 24.302-7.898h273.058l-220.947-160.465zM1018.536 560.881c-5.558 17.084-21.327 28.549-39.266 28.549h-310.725l-95.969 295.475c-5.56 17.083-21.326 28.549-39.269 28.549s-33.767-11.466-39.27-28.55l-96.027-295.474h-310.722c-17.944 0-33.71-11.465-39.271-28.549-5.503-17.084 0.516-35.602 15.020-46.15l251.388-182.593-96.084-295.531c-5.504-17.084 0.517-35.602 15.078-46.15 7.223-5.275 15.766-7.912 24.192-7.912 8.543 0 17.085 2.637 24.308 7.969l251.388 182.593 251.273-182.593c14.504-10.603 34.054-10.603 48.615-0.057 14.504 10.548 20.524 29.066 15.020 46.207l-96.083 295.474 251.389 182.593c14.559 10.548 20.582 29.066 15.016 46.15v0z" />
<glyph unicode="&#xe91e;" glyph-name="steering" data-tags="steering" d="M512 960c-283.041 0-512-228.959-512-512s228.959-512 512-512c283.042 0 512 228.958 512 512 0 283.041-228.958 512-512 512zM512 893.507c245.803 0 445.508-199.702 445.508-445.507 0-245.803-199.706-445.508-445.508-445.508-245.804 0-445.507 199.706-445.507 445.508 0 245.804 199.702 445.507 445.507 445.507zM123.057 563.477c-10.44-42.555-16.668-82.009-16.668-119.688 320.721-67.157 269.298-138.308 328.034-394.086 25.267-4.655 50.978-7.313 77.577-7.313s52.309 2.658 77.577 7.313c58.735 255.778 7.313 326.929 328.034 394.086-1.331 41.89-6.652 85.111-16.623 119.688-187.955 46.989-289.024 70.705-388.988 70.705-99.962 0-201.032-23.716-388.943-70.705zM512 609.801c89.101 0 161.801-72.7 161.801-161.801s-72.7-161.801-161.801-161.801c-89.101 0-161.801 72.7-161.801 161.801s72.7 161.801 161.801 161.801zM512 569.905c-67.601 0-121.905-54.304-121.905-121.905s54.304-121.903 121.905-121.903c67.601 0 121.903 54.302 121.903 121.903s-54.302 121.905-121.903 121.905z" />
<glyph unicode="&#xe920;" glyph-name="triple-next" data-tags="triple-next" d="M6.085 86.578l361.422 361.422-361.503 361.503c-8.008 8.008-8.008 20.951 0 28.878 8.008 8.008 20.951 8.008 28.878 0l375.982-375.903c8.007-8.007 8.007-20.949 0-28.877l-375.902-375.983c-8.008-8.007-20.951-8.007-28.878 0-8.008 8.010-8.008 20.952 0 28.959zM303.376 86.578l361.422 361.422-361.503 361.503c-8.008 8.008-8.008 20.951 0 28.878 8.008 8.008 20.951 8.008 28.878 0l375.983-375.903c8.007-8.007 8.007-20.949 0-28.877l-375.9-375.983c-8.010-8.007-20.952-8.007-28.879 0-8.008 8.010-8.008 20.952 0 28.959zM600.665 86.578l361.422 361.422-361.502 361.503c-8.010 8.008-8.010 20.951 0 28.878 8.007 8.008 20.949 8.008 28.877 0l375.983-375.903c8.007-8.007 8.007-20.949 0-28.877l-375.9-375.983c-8.010-8.007-20.952-8.007-28.88 0-8.007 8.010-8.007 20.952 0 28.959z" />
<glyph unicode="&#xe921;" glyph-name="user" data-tags="user" d="M485.018 958.87c-111.718-9.822-207.915-84.386-242.457-187.809-9.727-28.661-13.448-52.119-13.448-84.584 0-99.421 51.507-186.013 141.707-237.526 10.547-6.006 17.795-11.222 16.134-11.827-1.651-0.605-11.789-3.408-22.55-6.416s-29.581-9.216-41.994-14.032c-185.569-72.349-312.179-242.125-321.896-432.742-0.83-15.434-0.626-31.066 0.41-34.682 3.516-13.834 22.55-17.837 32.483-7.219 5.166 5.808 5.586 7.616 7.031 32.067 9.307 171.184 109.020 318.515 265.007 391.667 63.099 29.677 119.784 43.104 190.325 45.507 78.618 2.602 152.061-12.426 221.568-45.296 155.779-73.958 256.938-222.688 265.005-389.862 1.242-26.656 1.446-28.262 6.829-34.074 6.621-7.011 16.758-8.013 25.654-2.403 8.682 5.411 10.138 11.629 8.682 39.29-6.621 121.258-55.853 232.31-141.504 318.899-66.4 67.344-148.33 114.25-239.974 138.093l-9.104 2.205 20.48 11.83c73.034 42.086 120.4 107.635 136.122 188.416 5.178 25.651 5.178 70.55 0 96.212-19.443 100.216-93.091 181.603-191.984 212.27-35.363 11.013-76.118 15.423-112.525 12.016zM543.555 918.788c37.034-5.015 82.339-22.852 111.501-44.095 88.336-64.344 121.024-176.388 80.678-275.602-21.514-52.714-67.024-99.619-119.987-124.070-18.41-8.422-40.346-15.434-59.994-19.245-18.832-3.606-70.131-3.606-88.963 0-47.581 9.226-90.202 30.864-124.128 63.142-33.928 32.474-53.578 65.744-66.821 113.245-4.756 17.241-5.177 23.050-5.177 54.324 0 31.263 0.41 37.084 5.177 54.314 12.823 46.1 32.483 80.175 64.546 111.239 53.597 51.712 129.52 76.768 203.168 66.748z" />
<glyph unicode="&#xe922;" glyph-name="zalo" data-tags="zalo" d="M133.462 62.295l147.722 51.531 25.855-13.523c59.396-30.991 125.43-47.508 194.679-47.508 231.298 0 419.268 190.476 419.268 401.998 0 211.524-187.97 401.998-419.268 401.998-231.295 0-419.267-190.474-419.267-401.998 0-78.938 27.252-159.045 77.355-227.532l24.108-32.888-50.522-132 0.070-0.078zM84.058-31.991c-6.324-2.217-13.121-2.494-19.59-0.795-6.469 1.693-12.339 5.289-16.917 10.36-4.578 5.078-7.672 11.415-8.917 18.263-1.245 6.855-0.589 13.938 1.89 20.414l63.729 166.647c-58.139 79.667-91.68 174.978-91.68 271.895 0 242.222 209.633 475.088 489.144 475.088s489.147-232.867 489.147-475.088c0-242.224-209.637-475.087-489.147-475.087-78.391-0.235-155.75 18.691-225.915 55.254l-191.745-66.952zM327.027 381.699h349.391c23.293 0 34.936-12.182 34.936-36.545 0-24.365-11.643-36.544-34.936-36.544h-349.391c-23.292 0-34.939 12.18-34.939 36.544s11.646 36.545 34.939 36.545zM361.966 600.971h279.51c23.293 0 34.942-12.182 34.942-36.545s-11.65-36.545-34.942-36.545h-279.51c-23.292 0-34.939 12.182-34.939 36.545s11.646 36.545 34.939 36.545z" />
</font>
</defs>
</svg>
