<svg width="115" height="115" viewBox="0 0 115 115" fill="none" xmlns="http://www.w3.org/2000/svg">
<path d="M57.501 0.000244141C25.761 0.000244141 0.000976562 25.7602 0.000976562 57.5002C0.000976562 89.2402 25.761 115 57.501 115C89.241 115 115.001 89.2402 115.001 57.5002C115.001 25.7602 89.241 0.000244141 57.501 0.000244141ZM78.2585 36.4552C84.411 36.4552 89.356 41.4002 89.356 47.5527C89.356 53.7052 84.411 58.6502 78.2585 58.6502C72.106 58.6502 67.161 53.7052 67.161 47.5527C67.1035 41.4002 72.106 36.4552 78.2585 36.4552ZM43.7585 27.3702C51.2335 27.3702 57.3285 33.4652 57.3285 40.9402C57.3285 48.4152 51.2335 54.5102 43.7585 54.5102C36.2835 54.5102 30.1885 48.4152 30.1885 40.9402C30.1885 33.4077 36.226 27.3702 43.7585 27.3702ZM43.7585 79.8677V101.43C29.9585 97.1177 19.0335 86.4802 14.2035 72.9102C20.241 66.4702 35.306 63.1927 43.7585 63.1927C46.806 63.1927 50.6585 63.6527 54.6835 64.4577C45.2535 69.4602 43.7585 76.0727 43.7585 79.8677ZM57.501 103.5C55.9485 103.5 54.4535 103.443 52.9585 103.27V79.8677C52.9585 71.7027 69.8635 67.6202 78.2585 67.6202C84.411 67.6202 95.0485 69.8627 100.338 74.2327C93.611 91.3102 76.9935 103.5 57.501 103.5Z" fill="white"/>
</svg>
