<svg width="159" height="120" viewBox="0 0 159 120" fill="none" xmlns="http://www.w3.org/2000/svg">
<path fill-rule="evenodd" clip-rule="evenodd" d="M13.1581 44.2845C-1.04714 37.0655 0.582959 29.0185 14.8528 29.8594L18.0484 35.8494L24.6335 15.3696C27.2209 7.3096 31.5291 0 39.9772 0H124.199C132.647 0 137.512 7.16729 139.556 15.3566L144.498 35.2155L147.344 29.8594C162.015 29.0055 163.322 37.5312 147.797 44.8926L150.32 48.7608C160.527 59.253 159.57 77.8052 157.979 103.719V114.25C157.979 116.889 155.818 119.049 153.179 119.049H132.699C130.06 119.049 127.899 116.889 127.899 114.25V108.376H31.1022V114.25C31.1022 116.889 28.9416 119.049 26.3024 119.049H5.82258C3.18337 119.049 1.02283 116.889 1.02283 114.25V101.17C1.02283 100.911 1.0487 100.665 1.07458 100.42C-0.477902 80.535 -2.66431 54.5309 13.1581 44.2845ZM39.3044 75.9422L21.1145 73.6523C16.8193 73.1736 15.6679 74.9848 17.1298 78.6849L19.0963 83.4588C19.7302 84.6879 20.5712 85.5805 21.5544 86.2015C22.7058 86.9131 24.0901 87.2624 25.6297 87.3271L41.8531 87.4564C45.7731 87.4435 47.4679 85.8781 46.2388 82.2815C45.2297 78.9049 42.9269 76.7831 39.3044 75.9422ZM70.354 68.2962H88.9838C90.0835 68.2962 90.9891 69.2019 90.9891 70.3015C90.9891 71.4012 90.0835 72.3068 88.9838 72.3068H70.354C69.2544 72.3068 68.3488 71.4012 68.3488 70.3015C68.3358 69.2019 69.2414 68.2962 70.354 68.2962ZM116.385 94.6367H135.015C136.115 94.6367 137.02 95.5423 137.02 96.642C137.02 97.7416 136.115 98.6472 135.015 98.6472H116.385C115.285 98.6472 114.38 97.7416 114.38 96.642C114.38 95.5423 115.272 94.6367 116.385 94.6367ZM119.671 75.9422L137.861 73.6523C142.156 73.1736 143.308 74.9848 141.846 78.6849L139.879 83.4588C139.245 84.6879 138.404 85.5805 137.421 86.2015C136.27 86.9131 134.886 87.2624 133.346 87.3271L117.123 87.4564C113.203 87.4435 111.508 85.8781 112.737 82.2815C113.746 78.9049 116.049 76.7831 119.671 75.9422ZM23.8184 94.6367H42.4482C43.5479 94.6367 44.4535 95.5423 44.4535 96.642C44.4535 97.7416 43.5479 98.6472 42.4482 98.6472H23.8184C22.7188 98.6472 21.8131 97.7416 21.8131 96.642C21.8131 95.5423 22.7188 94.6367 23.8184 94.6367ZM24.8793 40.3645H137.201L132.246 19.7683C130.888 13.4936 126.981 8.05997 120.538 8.05997H42.7716C36.3418 8.05997 33.0428 13.636 31.0633 19.7683L24.8793 40.3645Z" fill="#777D92"/>
</svg>
