<svg width="16" height="14" viewBox="0 0 16 14" fill="none" xmlns="http://www.w3.org/2000/svg">
<path d="M13.2916 0.687276L15.6667 5.45755C15.7087 5.52021 15.7294 5.60353 15.75 5.66619C15.896 6.0415 16 6.56212 16 6.89543V9.1659C16 9.87451 15.5207 10.4578 14.8541 10.6244V11.9577C14.8541 12.6036 14.3335 13.1036 13.7082 13.1036C13.0622 13.1036 12.5623 12.6036 12.5623 11.9577V10.6658H3.43771V11.9577C3.43771 12.6036 2.93776 13.1036 2.29181 13.1036C1.66653 13.1036 1.1459 12.6036 1.1459 11.9577V10.6244C0.479293 10.4578 0 9.87451 0 9.1659V6.89543C0 6.56212 0.103991 6.0415 0.249979 5.66619C0.270644 5.60353 0.291976 5.52021 0.333306 5.45755L2.70844 0.687276C2.89576 0.333306 3.39572 0 3.81235 0H12.187C12.6036 0 13.1042 0.333306 13.2916 0.687276ZM3.68769 2.12449L2.41713 5.02025C2.35447 5.12424 2.35447 5.24956 2.35447 5.33289H13.6455C13.6455 5.24956 13.6455 5.12424 13.5829 5.02025L12.3123 2.12449C12.1457 1.74919 11.6457 1.41588 11.2497 1.41588H4.75027C4.3543 1.41588 3.85435 1.74919 3.68769 2.12449ZM3.12574 9.16524C3.79235 9.16524 4.31297 8.62328 4.31297 7.93601C4.31297 7.26939 3.79235 6.74877 3.12574 6.74877C2.45913 6.74877 1.89651 7.26939 1.89651 7.93601C1.89651 8.62328 2.45913 9.16524 3.12574 9.16524ZM12.8749 9.16524C13.5415 9.16524 14.1042 8.62328 14.1042 7.93601C14.1042 7.26939 13.5415 6.74877 12.8749 6.74877C12.2083 6.74877 11.6877 7.26939 11.6877 7.93601C11.6877 8.62328 12.2083 9.16524 12.8749 9.16524Z" fill="white"/>
</svg>
