<svg width="48" height="48" viewBox="0 0 48 48" fill="none" xmlns="http://www.w3.org/2000/svg">
<path d="M48 24C48 30.3652 45.4714 36.4697 40.9706 40.9706C36.4697 45.4714 30.3652 48 24 48C17.6348 48 11.5303 45.4714 7.02944 40.9706C2.52856 36.4697 0 30.3652 0 24C0 23.4696 0.210714 22.9609 0.585786 22.5858C0.960859 22.2107 1.46957 22 2 22C2.53043 22 3.03914 22.2107 3.41421 22.5858C3.78929 22.9609 4 23.4696 4 24C4 27.9556 5.17298 31.8224 7.37061 35.1114C9.56824 38.4004 12.6918 40.9638 16.3463 42.4776C20.0009 43.9913 24.0222 44.3874 27.9018 43.6157C31.7814 42.844 35.3451 40.9392 38.1421 38.1421C40.9392 35.3451 42.844 31.7814 43.6157 27.9018C44.3874 24.0222 43.9913 20.0009 42.4776 16.3463C40.9638 12.6918 38.4004 9.56824 35.1114 7.37061C31.8224 5.17298 27.9556 4 24 4C23.4696 4 22.9609 3.78929 22.5858 3.41421C22.2107 3.03914 22 2.53043 22 2C22 1.46957 22.2107 0.960859 22.5858 0.585786C22.9609 0.210714 23.4696 0 24 0C30.3631 0.00688216 36.4636 2.53766 40.963 7.03704C45.4623 11.5364 47.9931 17.6369 48 24ZM20.554 22H16C15.4696 22 14.9609 22.2107 14.5858 22.5858C14.2107 22.9609 14 23.4696 14 24C14 24.5304 14.2107 25.0391 14.5858 25.4142C14.9609 25.7893 15.4696 26 16 26H20.554C20.8594 26.5305 21.2829 26.9835 21.7915 27.324C22.3002 27.6645 22.8804 27.8834 23.4872 27.9636C24.094 28.0439 24.7112 27.9834 25.2908 27.7868C25.8705 27.5902 26.3972 27.2628 26.83 26.83C27.2628 26.3972 27.5902 25.8705 27.7868 25.2908C27.9834 24.7112 28.0439 24.094 27.9636 23.4872C27.8834 22.8804 27.6645 22.3002 27.324 21.7915C26.9835 21.2829 26.5305 20.8594 26 20.554V14C26 13.4696 25.7893 12.9609 25.4142 12.5858C25.0391 12.2107 24.5304 12 24 12C23.4696 12 22.9609 12.2107 22.5858 12.5858C22.2107 12.9609 22 13.4696 22 14V20.554C21.4009 20.9026 20.9026 21.4009 20.554 22ZM3.654 17.568C4.04956 17.568 4.43624 17.4507 4.76514 17.2309C5.09404 17.0112 5.35038 16.6988 5.50176 16.3334C5.65313 15.9679 5.69274 15.5658 5.61557 15.1778C5.5384 14.7899 5.34792 14.4335 5.06821 14.1538C4.78851 13.8741 4.43214 13.6836 4.04418 13.6064C3.65622 13.5293 3.25409 13.5689 2.88863 13.7202C2.52318 13.8716 2.21082 14.128 1.99106 14.4569C1.7713 14.7858 1.654 15.1724 1.654 15.568C1.654 16.0984 1.86471 16.6071 2.23979 16.9822C2.61486 17.3573 3.12357 17.568 3.654 17.568ZM8.442 10.414C8.83756 10.414 9.22424 10.2967 9.55314 10.0769C9.88204 9.85718 10.1384 9.54482 10.2898 9.17937C10.4411 8.81391 10.4807 8.41178 10.4036 8.02382C10.3264 7.63586 10.1359 7.27949 9.85621 6.99979C9.57651 6.72008 9.22014 6.5296 8.83218 6.45243C8.44422 6.37526 8.04209 6.41487 7.67663 6.56624C7.31118 6.71762 6.99882 6.97396 6.77906 7.30286C6.5593 7.63176 6.442 8.01844 6.442 8.414C6.442 8.94443 6.65271 9.45314 7.02779 9.82821C7.40286 10.2033 7.91157 10.414 8.442 10.414ZM15.558 5.682C15.9536 5.682 16.3402 5.5647 16.6691 5.34494C16.998 5.12518 17.2544 4.81282 17.4058 4.44737C17.5571 4.08191 17.5967 3.67978 17.5196 3.29182C17.4424 2.90386 17.2519 2.54749 16.9722 2.26779C16.6925 1.98808 16.3361 1.7976 15.9482 1.72043C15.5602 1.64326 15.1581 1.68287 14.7926 1.83424C14.4272 1.98562 14.1148 2.24196 13.8951 2.57086C13.6753 2.89976 13.558 3.28644 13.558 3.682C13.558 4.21243 13.7687 4.72114 14.1438 5.09621C14.5189 5.47129 15.0276 5.682 15.558 5.682Z" fill="white"/>
</svg>
