<svg width="60" height="60" viewBox="0 0 60 60" fill="none" xmlns="http://www.w3.org/2000/svg">
<path d="M35.7381 30L51.7994 13.9387C52.5616 13.1778 52.9904 12.1453 52.9913 11.0682C52.9923 9.99115 52.5654 8.95784 51.8044 8.19557C51.0435 7.43331 50.0109 7.00454 48.9339 7.00359C47.8568 7.00264 46.8235 7.42958 46.0613 8.1905L30 24.2518L13.9387 8.1905C13.1765 7.42824 12.1426 7 11.0646 7C9.98662 7 8.95276 7.42824 8.1905 8.1905C7.42824 8.95276 7 9.98662 7 11.0646C7 12.1426 7.42824 13.1765 8.1905 13.9387L24.2518 30L8.1905 46.0613C7.42824 46.8235 7 47.8574 7 48.9354C7 50.0134 7.42824 51.0472 8.1905 51.8095C8.95276 52.5718 9.98662 53 11.0646 53C12.1426 53 13.1765 52.5718 13.9387 51.8095L30 35.7482L46.0613 51.8095C46.8235 52.5718 47.8574 53 48.9354 53C50.0134 53 51.0472 52.5718 51.8095 51.8095C52.5718 51.0472 53 50.0134 53 48.9354C53 47.8574 52.5718 46.8235 51.8095 46.0613L35.7381 30Z" fill="black"/>
</svg>
