<svg width="15" height="15" viewBox="0 0 15 15" fill="none" xmlns="http://www.w3.org/2000/svg">
<path d="M8.86471 1H0.594238V6.31762H8.86471V1Z" stroke="white" stroke-miterlimit="10"/>
<path d="M8.27047 6.31763H1.18237V14H8.27047V6.31763Z" stroke="white" stroke-miterlimit="10"/>
<path d="M9.45905 14H0" stroke="white" stroke-miterlimit="10"/>
<path d="M6.01713 10.9419C6.01713 11.2834 5.88147 11.6109 5.64 11.8524C5.39852 12.0939 5.07101 12.2295 4.72951 12.2295C4.38802 12.2295 4.0605 12.0939 3.81903 11.8524C3.57755 11.6109 3.44189 11.2834 3.44189 10.9419C3.44189 9.83999 4.72951 8.55237 4.72951 8.55237C4.72951 8.55237 6.01713 9.83999 6.01713 10.9419Z" stroke="white" stroke-miterlimit="10"/>
<path d="M2.95898 2.77045V4.54711" stroke="white" stroke-miterlimit="10"/>
<path d="M4.72949 2.77045V4.54711" stroke="white" stroke-miterlimit="10"/>
<path d="M6.5 2.77045V4.54711" stroke="white" stroke-miterlimit="10"/>
<path d="M8.27661 6.3176H10.0471C10.3602 6.31922 10.66 6.44432 10.8814 6.66571C11.1027 6.88709 11.2278 7.18689 11.2295 7.49998V12.2295C11.2295 12.5431 11.354 12.8438 11.5758 13.0656C11.7975 13.2873 12.0983 13.4119 12.4118 13.4119C12.7249 13.4103 13.0247 13.2852 13.2461 13.0638C13.4675 12.8424 13.5926 12.5426 13.5942 12.2295V3.95284L11.2295 1.58807" stroke="white" stroke-miterlimit="10"/>
<path d="M12.7585 3.12335C12.6484 3.23151 12.5609 3.36063 12.5014 3.50309C12.4419 3.64555 12.4114 3.79848 12.4119 3.95288C12.4135 4.26596 12.5386 4.56576 12.76 4.78715C12.9814 5.00854 13.2812 5.13363 13.5943 5.13526" stroke="white" stroke-miterlimit="10"/>
</svg>
