<svg width="16" height="23" viewBox="0 0 16 23" fill="none" xmlns="http://www.w3.org/2000/svg">
<path d="M14.3667 11.3153C13.5437 10.6255 12.4974 10.2593 11.4238 10.2853H4.52281C4.20816 10.2933 3.89515 10.2376 3.6025 10.1218C3.30985 10.0059 3.0436 9.83219 2.81967 9.611C2.59574 9.38982 2.41874 9.12573 2.29927 8.83454C2.1798 8.54334 2.12031 8.23104 2.12437 7.91632C2.1167 7.79382 2.1167 7.67096 2.12437 7.54846C2.21715 6.98608 2.51204 6.47692 2.95366 6.11658C3.39528 5.75624 3.95326 5.56951 4.52281 5.59145H11.3208C11.8754 5.59096 12.412 5.78746 12.8352 6.14589C13.2583 6.50432 13.5403 7.0014 13.631 7.54846H15.8381C15.7457 6.41389 15.2298 5.35563 14.3928 4.5841C13.5558 3.81256 12.4592 3.38424 11.3208 3.3843H8.99597V0H7.15668V3.3843H4.52281C3.38448 3.38424 2.28782 3.81256 1.45085 4.5841C0.613877 5.35563 0.097902 6.41389 0.00550521 7.54846C-0.00183507 7.67097 -0.00183507 7.79381 0.00550521 7.91632C0.00550521 8.50954 0.122349 9.09695 0.349364 9.64501C0.57638 10.1931 0.909123 10.6911 1.32859 11.1105C2.17575 11.9577 3.32475 12.4336 4.52281 12.4336H11.4974C11.8096 12.4258 12.1201 12.4805 12.4108 12.5945C12.7015 12.7086 12.9664 12.8797 13.1899 13.0977C13.4134 13.3157 13.5911 13.5763 13.7123 13.8641C13.8335 14.1518 13.8959 14.4609 13.8958 14.7732C13.9111 14.9396 13.9111 15.1071 13.8958 15.2735C13.779 15.7912 13.4896 16.2538 13.0752 16.5854C12.6607 16.9169 12.1459 17.0977 11.6151 17.0981H4.69938C4.16863 17.0977 3.65377 16.9169 3.23933 16.5854C2.82488 16.2538 2.53549 15.7912 2.41866 15.2735H0.196792C0.323244 16.3791 0.852025 17.3995 1.68238 18.1403C2.51273 18.8811 3.5866 19.2905 4.69938 19.2905H7.15668V22.6307H8.99597V19.2905H11.4974C12.6102 19.2905 13.6841 18.8811 14.5144 18.1403C15.3448 17.3995 15.8735 16.3791 16 15.2735V14.7732C15.9982 14.1123 15.851 13.4599 15.5687 12.8623C15.2864 12.2646 14.876 11.7365 14.3667 11.3153Z" fill="white"/>
</svg>
