<svg width="24" height="24" viewBox="0 0 24 24" fill="none" xmlns="http://www.w3.org/2000/svg">
<path fill-rule="evenodd" clip-rule="evenodd" d="M23.7296 7.65498C24.0901 8.01546 24.0901 8.59992 23.7296 8.96041L16.3451 16.3451C15.9845 16.7056 15.4001 16.7056 15.0396 16.3451C14.6791 15.9846 14.6791 15.4001 15.0396 15.0396L20.8484 9.23077H8.3077C4.73909 9.23077 1.84615 12.1237 1.84615 15.6923V23.077C1.84615 23.5867 1.43287 24 0.923076 24C0.41328 24 0 23.5867 0 23.077V15.6923C0 11.1041 3.71948 7.38462 8.3077 7.38462H20.8484L15.0396 1.57579C14.6791 1.21531 14.6791 0.630852 15.0396 0.27036C15.4001 -0.09012 15.9845 -0.09012 16.3451 0.27036L23.7296 7.65498Z" fill="white"/>
</svg>
