<svg width="26" height="42" viewBox="0 0 26 42" fill="none" xmlns="http://www.w3.org/2000/svg">
<path d="M18.7727 19.516L22.2631 16.2425C24.3334 14.3015 25.5083 11.5912 25.5083 8.75367V4.03234C25.509 2.92377 25.054 1.90625 24.3269 1.18142C23.602 0.453553 22.5839 -0.000737386 21.4753 8.98496e-07H4.03234C2.92377 -0.000737386 1.90625 0.453553 1.18142 1.18134C0.453635 1.90625 -0.000655354 2.92369 8.98497e-07 4.03226V8.75351C8.98497e-07 11.5911 1.17428 14.3015 3.24451 16.2423L6.73496 19.5144C6.92789 19.6953 7.03667 19.9469 7.03667 20.2111V21.7889C7.03667 22.0531 6.92789 22.304 6.73561 22.4841L3.24451 25.7576C1.17428 27.6979 8.98497e-07 30.4089 8.98497e-07 33.2464V37.9677C-0.000737386 39.0762 0.453553 40.0937 1.18142 40.8187C1.90625 41.5464 2.92377 42.0007 4.03234 42H21.4752C22.5838 42.0007 23.602 41.5464 24.3269 40.8187C25.0539 40.0937 25.5089 39.0762 25.5083 37.9677V33.2464C25.5083 30.4089 24.3333 27.6978 22.2631 25.7576L18.7727 22.4849C18.5804 22.304 18.471 22.0531 18.471 21.7889V20.2111C18.471 19.947 18.5805 19.6954 18.7727 19.516ZM22.4292 37.9678C22.4284 38.2363 22.3253 38.4645 22.15 38.642C21.9726 38.8171 21.7438 38.921 21.4752 38.9217H4.03234C3.76385 38.9209 3.53564 38.8171 3.35763 38.642C3.18307 38.4645 3.07922 38.2363 3.07856 37.9678V33.2466C3.07856 31.2604 3.90101 29.3619 5.3501 28.0039L8.84054 24.7304C9.6538 23.9687 10.1151 22.9032 10.1151 21.789V20.2112C10.1151 19.0962 9.6538 18.0308 8.8398 17.269L5.3501 13.9963C3.90093 12.6383 3.07856 10.7405 3.07856 8.75367V4.03234C3.07922 3.76386 3.18307 3.53564 3.35763 3.35755C3.53564 3.18307 3.76385 3.07914 4.03234 3.07848H21.4752C21.7437 3.07922 21.9726 3.18307 22.15 3.35755C22.3252 3.53564 22.4284 3.76377 22.4292 4.03234V8.75359C22.4292 10.7404 21.6067 12.6382 20.1583 13.9962L16.6678 17.269C15.8539 18.0307 15.3925 19.0961 15.3925 20.2111V21.7889C15.3925 22.9031 15.8539 23.9686 16.6678 24.7317L20.1583 28.0031C21.6068 29.3618 22.4292 31.2603 22.4292 33.2464V37.9678Z" fill="white"/>
<path d="M12.7546 20.3991C13.5763 20.3991 14.2419 19.7328 14.2419 18.9111C14.4906 17.9226 15.0127 17.0112 15.7659 16.3061L19.2556 13.034C20.3706 11.989 21.0277 10.5363 21.0969 9.01575H4.41211C4.48134 10.5363 5.13842 11.989 6.25273 13.034L9.74244 16.3061C10.4963 17.0112 11.0178 17.9226 11.2665 18.9111C11.2666 19.7328 11.9328 20.3991 12.7546 20.3991Z" fill="white"/>
<path d="M12.7546 21.9678C11.9329 21.9678 11.2666 22.634 11.2666 23.4557C11.2666 24.2768 11.9329 24.9431 12.7546 24.9431C13.5763 24.9431 14.2419 24.2768 14.2419 23.4557C14.2419 22.634 13.5763 21.9678 12.7546 21.9678Z" fill="white"/>
<path d="M12.7546 27.2457C11.9329 27.2457 11.2666 27.912 11.2666 28.7338C11.2666 29.5548 11.9329 30.2211 12.7546 30.2211C13.5763 30.2211 14.2419 29.5548 14.2419 28.7338C14.2419 27.912 13.5763 27.2457 12.7546 27.2457Z" fill="white"/>
<path d="M11.4319 31.9712L5.97363 37.4294H19.5347L14.0765 31.9712C13.346 31.2414 12.1624 31.2414 11.4319 31.9712Z" fill="white"/>
</svg>
