<svg width="18" height="32" viewBox="0 0 18 32" fill="none" xmlns="http://www.w3.org/2000/svg">
<path d="M15.7948 1H6.18836L1.00326 16.6114C1.00004 16.6216 0.999189 16.6324 1.00078 16.6429C1.00238 16.6535 1.00637 16.6636 1.01246 16.6724C1.01855 16.6812 1.02657 16.6884 1.0359 16.6937C1.04524 16.6989 1.05564 16.7019 1.06632 16.7025H7.01517C7.02645 16.7019 7.03768 16.7041 7.04791 16.7089C7.05815 16.7136 7.06708 16.7208 7.07396 16.7297C7.08084 16.7387 7.08546 16.7491 7.08743 16.7603C7.08939 16.7714 7.08864 16.7828 7.08524 16.7935L2.48171 30.5551C2.45538 30.6345 2.45835 30.7208 2.49009 30.7982C2.52183 30.8756 2.58024 30.9392 2.65475 30.9773C2.72927 31.0154 2.81495 31.0255 2.89632 31.0059C2.97768 30.9863 3.04934 30.9382 3.09832 30.8704L16.986 11.8046C16.9938 11.7942 16.9985 11.7818 16.9997 11.7689C17.0009 11.7559 16.9984 11.7429 16.9926 11.7313C16.9868 11.7196 16.9778 11.7098 16.9668 11.703C16.9557 11.6961 16.9429 11.6925 16.9299 11.6925H10.6868C10.675 11.6912 10.6637 11.6872 10.6537 11.6808C10.6437 11.6744 10.6353 11.6657 10.6292 11.6556C10.6231 11.6454 10.6195 11.634 10.6185 11.6221C10.6176 11.6103 10.6193 11.5984 10.6237 11.5874L15.8579 1.07708C15.8588 1.06787 15.858 1.05856 15.8553 1.04968C15.8527 1.04081 15.8483 1.03255 15.8424 1.02538C15.8366 1.01822 15.8293 1.01228 15.8212 1.00793C15.813 1.00357 15.804 1.00088 15.7948 1Z" stroke="white" stroke-width="1.5"/>
</svg>
