<svg width="16" height="21" viewBox="0 0 16 21" fill="none" xmlns="http://www.w3.org/2000/svg">
<path fill-rule="evenodd" clip-rule="evenodd" d="M8.68311 20.4804C8.64853 20.5219 8.61031 20.56 8.5688 20.5945C8.19147 20.908 7.63102 20.8569 7.31689 20.4804C2.43897 14.6337 0 10.3613 0 7.66295C0 3.43078 3.75938 -6.10352e-05 8 -6.10352e-05C12.2406 -6.10352e-05 16 3.43078 16 7.66295C16 10.3613 13.5611 14.6337 8.68311 20.4804ZM14.2222 7.66295C14.2222 4.49157 11.3418 1.77417 8 1.77417C4.6582 1.77417 1.77778 4.49157 1.77778 7.66295C1.77778 9.69542 3.83868 13.4084 8 18.5167C12.1613 13.4084 14.2222 9.69542 14.2222 7.66295ZM8 9.75822C7.01813 9.75822 6.22222 8.9639 6.22222 7.98399C6.22222 7.00411 7.01813 6.20976 8 6.20976C8.98187 6.20976 9.77778 7.00411 9.77778 7.98399C9.77778 8.9639 8.98187 9.75822 8 9.75822Z" fill="white"/>
</svg>
