<svg width="18" height="21" viewBox="0 0 18 21" fill="none" xmlns="http://www.w3.org/2000/svg">
<path fill-rule="evenodd" clip-rule="evenodd" d="M9.274 20.4805C9.2371 20.5219 9.1963 20.5601 9.152 20.5946C8.74926 20.9081 8.15109 20.857 7.81581 20.4805C2.60951 14.6338 0.00634766 10.3613 0.00634766 7.66301C0.00634766 3.43084 4.01881 0 8.5449 0C13.071 0 17.0835 3.43084 17.0835 7.66301C17.0835 10.3613 14.4803 14.6338 9.274 20.4805ZM15.186 7.66301C15.186 4.49163 12.1116 1.77423 8.5449 1.77423C4.97813 1.77423 1.9038 4.49163 1.9038 7.66301C1.9038 9.69548 4.10344 13.4085 8.5449 18.5168C12.9864 13.4085 15.186 9.69548 15.186 7.66301ZM8.5449 9.75828C7.49694 9.75828 6.64745 8.96396 6.64745 7.98405C6.64745 7.00417 7.49694 6.20982 8.5449 6.20982C9.59287 6.20982 10.4424 7.00417 10.4424 7.98405C10.4424 8.96396 9.59287 9.75828 8.5449 9.75828Z" fill="black"/>
</svg>
