<svg width="227" height="125" viewBox="0 0 227 125" fill="none" xmlns="http://www.w3.org/2000/svg">
<path d="M158 113L179.75 101.742V124.258L158 113Z" fill="white"/>
<path d="M69 113L46.5 124.258V101.742L69 113Z" fill="white"/>
<path fill-rule="evenodd" clip-rule="evenodd" d="M140 73.5C140 49.4756 159.476 30 183.5 30C207.524 30 227 49.4756 227 73.5C227 97.5244 207.524 117 183.5 117V107L140 73.5ZM183.5 40C164.998 40 150 54.9984 150 73.5H140L183.5 107C202.002 107 217 92.0015 217 73.5C217 54.9984 202.002 40 183.5 40Z" fill="white"/>
<path d="M140 1H150V114H140V1Z" fill="white"/>
<path d="M94.0001 72C100 67 108.818 59.1761 112 55C115.182 50.8239 118.591 47.8352 120.023 44.2954C121.494 40.7557 122.23 37.0767 122.23 33.2585C122.23 28.6051 121.136 24.5483 118.949 21.088C116.801 17.588 113.838 14.8636 110.06 12.9147C106.281 10.9659 102.025 9.99146 97.2925 9.99146C92.2811 9.99146 87.8862 11.0653 84.1078 13.213C80.3692 15.3608 77.2449 18.19 75.3976 22.0426C73.5 26 72.5 29 72.5 29L63 24C63 24 63.5 22.5 66.2698 16.9716C69.4118 11.7216 73.6874 7.60509 79.0965 4.62213C84.5453 1.63918 90.7101 0.147705 97.5908 0.147705C104.392 0.147705 110.437 1.6193 115.727 4.56248C121.017 7.46589 125.173 11.4233 128.196 16.4346C131.219 21.446 132.73 27.054 132.73 33.2585C132.73 37.7528 131.935 42.1079 130.344 46.3238C128.792 50.5398 125.318 54.8295 121.5 60C117.682 65.1705 101 79.5 94.0001 86V72Z" fill="white"/>
<path fill-rule="evenodd" clip-rule="evenodd" d="M43.5 117C19.4756 117 1.05014e-06 97.5244 0 73.5C-1.05014e-06 49.4756 19.4756 30 43.5 30C67.5244 30 87 49.4756 87 73.5V104H132V114H77V73.5L43.5 117ZM10 73.5C10 92.0016 24.9984 107 43.5 107V117L77 73.5C77 54.9985 62.0015 40 43.5 40C24.9984 40 10 54.9985 10 73.5Z" fill="white"/>
</svg>
