<svg width="16" height="16" viewBox="0 0 16 16" fill="none" xmlns="http://www.w3.org/2000/svg">
<path d="M3.13044 13.0819L3.64504 13.222C3.70012 13.0197 3.63156 12.8039 3.46983 12.6705L3.13044 13.0819ZM2.48117 15.4667L1.96656 15.3266C1.91196 15.5272 1.97884 15.7411 2.13793 15.8749C2.29702 16.0087 2.51933 16.0378 2.70752 15.9496L2.48117 15.4667ZM5.07827 14.2493L5.27905 13.7552C5.14133 13.6992 4.9865 13.7033 4.8519 13.7664L5.07827 14.2493ZM6.93334 6.93334L7.25334 6.50667L6.94102 6.27243L6.62335 6.49935L6.93334 6.93334ZM9.06668 8.53334L8.74668 8.96001L9.0841 9.21308L9.40811 8.94306L9.06668 8.53334ZM8.00001 0C3.60382 0 0 3.41439 0 7.67537H1.06667C1.06667 4.04764 4.14779 1.06667 8.00001 1.06667V0ZM0 7.67537C0 10.0098 1.09073 12.0907 2.79104 13.4933L3.46983 12.6705C1.99519 11.454 1.06667 9.6664 1.06667 7.67537H0ZM2.61583 12.9418L1.96656 15.3266L2.99577 15.6067L3.64504 13.222L2.61583 12.9418ZM2.70752 15.9496L5.30464 14.7322L4.8519 13.7664L2.2548 14.9838L2.70752 15.9496ZM4.87749 14.7434C5.83796 15.1337 6.89295 15.3507 8.00001 15.3507V14.2841C7.03328 14.2841 6.11448 14.0946 5.27905 13.7552L4.87749 14.7434ZM8.00001 15.3507C12.3962 15.3507 16 11.9363 16 7.67537H14.9333C14.9333 11.3031 11.8522 14.2841 8.00001 14.2841V15.3507ZM16 7.67537C16 3.41439 12.3962 0 8.00001 0V1.06667C11.8522 1.06667 14.9333 4.04764 14.9333 7.67537H16ZM3.51 10.034L7.24334 7.36734L6.62335 6.49935L2.89001 9.16602L3.51 10.034ZM6.61334 7.36001L8.74668 8.96001L9.38668 8.10668L7.25334 6.50667L6.61334 7.36001ZM9.40811 8.94306L12.6081 6.27639L11.9252 5.45696L8.72525 8.12363L9.40811 8.94306Z" fill="white"/>
</svg>
