<svg width="23" height="18" viewBox="0 0 23 18" fill="none" xmlns="http://www.w3.org/2000/svg">
<path d="M21.8281 10.2237H5.82089C5.53144 10.2237 5.25383 10.0944 5.04916 9.86404C4.84448 9.63387 4.72949 9.32151 4.72949 8.99589C4.72949 8.67027 4.84448 8.35791 5.04916 8.12774C5.25383 7.8974 5.53144 7.76807 5.82089 7.76807H21.8281C22.1175 7.76807 22.3952 7.8974 22.5998 8.12774C22.8045 8.35791 22.9195 8.67027 22.9195 8.99589C22.9195 9.32151 22.8045 9.63387 22.5998 9.86404C22.3952 10.0944 22.1175 10.2237 21.8281 10.2237Z" fill="white"/>
<path d="M21.8281 2.85677H5.82089C5.53144 2.85677 5.25383 2.72741 5.04916 2.49715C4.84448 2.26689 4.72949 1.95458 4.72949 1.62895C4.72949 1.30331 4.84448 0.991002 5.04916 0.760744C5.25383 0.530486 5.53144 0.401123 5.82089 0.401123H21.8281C22.1175 0.401123 22.3952 0.530486 22.5998 0.760744C22.8045 0.991002 22.9195 1.30331 22.9195 1.62895C22.9195 1.95458 22.8045 2.26689 22.5998 2.49715C22.3952 2.72741 22.1175 2.85677 21.8281 2.85677Z" fill="white"/>
<path d="M21.8281 17.5907H5.82089C5.53144 17.5907 5.25383 17.4613 5.04916 17.231C4.84448 17.0008 4.72949 16.6885 4.72949 16.3628C4.72949 16.0372 4.84448 15.7249 5.04916 15.4947C5.25383 15.2643 5.53144 15.135 5.82089 15.135H21.8281C22.1175 15.135 22.3952 15.2643 22.5998 15.4947C22.8045 15.7249 22.9195 16.0372 22.9195 16.3628C22.9195 16.6885 22.8045 17.0008 22.5998 17.231C22.3952 17.4613 22.1175 17.5907 21.8281 17.5907Z" fill="white"/>
<path d="M1.45522 3.26603C1.26602 3.26864 1.07819 3.22971 0.902247 3.15144C0.728351 3.05652 0.566795 2.93534 0.422032 2.79128C0.287164 2.63831 0.180455 2.45688 0.108044 2.25742C0.0356187 2.05797 -0.00108168 1.84439 2.42708e-05 1.62894C0.0053794 1.19548 0.156109 0.780314 0.422032 0.466597C0.558631 0.315002 0.722311 0.197802 0.902247 0.122807C1.25653 -0.0409356 1.65391 -0.0409356 2.0082 0.122807C2.18682 0.200716 2.35001 0.317556 2.48841 0.466597C2.75432 0.780314 2.90505 1.19548 2.91042 1.62894C2.91153 1.84439 2.87481 2.05797 2.8024 2.25742C2.72997 2.45688 2.62328 2.63831 2.48841 2.79128C2.34365 2.93534 2.18208 3.05652 2.0082 3.15144C1.83225 3.22971 1.64441 3.26864 1.45522 3.26603Z" fill="white"/>
<path d="M1.45522 10.633C1.26506 10.6304 1.07719 10.5859 0.902247 10.5021C0.725891 10.4191 0.563477 10.3028 0.422031 10.1583C0.287164 10.0052 0.180454 9.82381 0.108044 9.62441C0.0356187 9.42485 -0.00108168 9.21137 2.42708e-05 8.99593C0.0053794 8.56242 0.156109 8.14726 0.422031 7.83359C0.563477 7.68887 0.725891 7.57263 0.902247 7.4898C1.16567 7.35228 1.4596 7.30677 1.74626 7.35883L2.0082 7.45706L2.27013 7.60439C2.34636 7.6648 2.41926 7.73045 2.48841 7.80085C2.76122 8.1227 2.91249 8.55113 2.91042 8.99593C2.91042 9.43009 2.7571 9.8464 2.48419 10.1535C2.2113 10.4605 1.84115 10.633 1.45522 10.633Z" fill="white"/>
<path d="M1.45553 18C1.26634 18.0026 1.0785 17.9636 0.902557 17.8854C0.728661 17.7904 0.567105 17.6693 0.422342 17.5252C0.293804 17.3661 0.190442 17.1834 0.11675 16.985C0.039756 16.789 0 16.5772 0 16.3629C0 16.1486 0.039756 15.9367 0.11675 15.7408C0.190442 15.5424 0.293804 15.3597 0.422342 15.2005C0.626972 14.9735 0.886841 14.8196 1.16912 14.7584C1.45141 14.6971 1.7435 14.7313 2.00851 14.8567C2.18713 14.9347 2.35032 15.0516 2.48872 15.2005C2.61726 15.3597 2.72062 15.5424 2.79431 15.7408C2.87129 15.9367 2.91106 16.1486 2.91106 16.3629C2.91106 16.5772 2.87129 16.789 2.79431 16.985C2.72062 17.1834 2.61726 17.3661 2.48872 17.5252C2.35275 17.677 2.19148 17.797 2.01418 17.8785C1.8369 17.96 1.64705 18.0013 1.45553 18Z" fill="white"/>
</svg>
