<svg width="19" height="16" viewBox="0 0 19 16" fill="none" xmlns="http://www.w3.org/2000/svg">
<path fill-rule="evenodd" clip-rule="evenodd" d="M14.149 0.728C14 1.01244 14 1.38578 14 2.13333V13.8667C14 14.6133 14 14.9867 14.149 15.272C14.2807 15.5228 14.4907 15.7266 14.7488 15.8542C15.0414 16 15.4254 16 16.1943 16H16.3771C17.1451 16 17.5291 16 17.8226 15.8551C18.0809 15.7272 18.2909 15.5231 18.4224 15.272C18.5714 14.9876 18.5714 14.6142 18.5714 13.8667V2.13333C18.5714 1.38667 18.5714 1.01333 18.4224 0.728C18.2909 0.476895 18.0809 0.272759 17.8226 0.144889C17.5301 8.9407e-08 17.1461 4.83936e-10 16.3771 4.83936e-10H16.1943C15.4263 4.83936e-10 15.0423 8.9407e-08 14.7488 0.144889C14.4905 0.272759 14.2806 0.476895 14.149 0.728Z" fill="white"/>
<path d="M0 0.737862V15.2786C0 15.5432 0.119981 15.7593 0.360711 15.9039C0.456849 15.9762 0.625283 16 0.745264 16C0.865244 16 0.961382 15.9762 1.08213 15.9039L13.6762 8.64504C13.917 8.47661 14.0608 8.26049 14.0608 7.99592C14.0608 7.75519 13.9162 7.53907 13.6762 7.37063L1.08213 0.11181C0.649125 -0.200447 0.000769106 0.184106 0.000769106 0.737093L0 0.737862Z" fill="white"/>
</svg>
