<svg width="16" height="16" viewBox="0 0 16 16" fill="none" xmlns="http://www.w3.org/2000/svg">
<path d="M15.9962 14.5845V15.9858L4.76843 15.9772L6.33956 14.5845H15.9962Z" fill="white"/>
<path d="M13.4754 0C14.0259 0 14.3115 0.04304 15.0612 0.670959C15.8265 1.31222 15.9643 1.81202 15.9964 2.36854C16.0304 2.96743 15.8282 3.69478 15.2664 4.26398L4.60275 14.9276C4.42925 15.0861 4.39255 15.0774 4.27677 15.1121L0.864927 15.9649C0.373802 16.0646 -0.0872941 15.6149 0.0141338 15.1144L0.867262 11.7026C0.900627 11.5911 0.911637 11.5301 1.05177 11.3766C4.62043 7.80795 8.12336 4.17222 11.7584 0.670959C12.2325 0.225543 12.9252 0 13.4754 0ZM13.4754 1.38229C13.1884 1.38763 12.9088 1.50607 12.7043 1.70793L2.18115 12.2314L1.65867 14.3204L3.74795 13.7982C7.2659 10.2803 10.8943 6.86907 14.3011 3.24369C14.8596 2.63479 14.4493 1.42433 13.5317 1.38296C13.5131 1.38229 13.4944 1.38195 13.4754 1.38229Z" fill="white"/>
</svg>
