<svg width="30" height="32" viewBox="0 0 30 32" fill="none" xmlns="http://www.w3.org/2000/svg">
<path d="M25.2515 22.2063V12.3122C25.2515 7.15961 21.5227 2.88694 16.6207 2.01739V1.23099C16.6207 0.550828 16.0687 0 15.3897 0H14.1587C13.4785 0 12.9277 0.550828 12.9277 1.23099V2.02086C8.03493 2.89964 4.32117 7.16885 4.32117 12.3122V22.2063L0 25.7042V27.7008H29.5507V25.7042L25.2538 22.2063H25.2515ZM28.3174 26.4686H1.22984V26.2908L5.55101 22.793V12.3111C5.55101 7.2185 9.69319 3.07632 14.7858 3.07632C19.8772 3.07632 24.0205 7.2185 24.0205 12.3111V22.7907L28.3174 26.2885V26.4686Z" fill="white"/>
<path d="M14.772 32C16.473 32 17.8541 30.6235 17.8541 28.9214H11.6934C11.6945 30.6224 13.0733 32 14.7731 32H14.772Z" fill="white"/>
</svg>
