<svg width="60" height="48" viewBox="0 0 60 48" fill="none" xmlns="http://www.w3.org/2000/svg">
<path d="M48.8432 5.69637C48.8432 2.55112 46.2931 0 43.1469 0C40.0006 0 37.4505 2.55013 37.4505 5.69637C37.4505 8.84262 40.0006 11.3927 43.1469 11.3927C46.2931 11.3927 48.8432 8.84262 48.8432 5.69637ZM40.5848 14.048L38.0694 12.7764L38.5783 11.7697L41.0927 13.0413L40.5848 14.048ZM0.0030172 2.51343L1.2141 15.0647C1.24485 15.3781 1.52556 15.6072 1.838 15.5785L9.91786 14.7959C10.2313 14.7661 10.4624 14.4854 10.4336 14.174L10.1242 10.993L11.3432 10.876C11.6943 11.2886 12.1645 11.6348 12.7675 11.8659C18.1465 13.932 23.6316 15.4872 29.2268 16.6289C26.8751 19.2901 24.8933 22.2886 23.3767 25.4824C23.2021 25.8454 23.0652 26.2154 22.9542 26.5913C22.8421 26.7362 22.7349 26.8869 22.6328 27.0605C19.0442 33.351 13.3408 39.2616 6.25286 41.3971C2.13656 42.638 3.89119 49.0892 8.02932 47.8404C15.4962 45.5878 21.8095 40.1771 26.273 33.7894C33.3005 34.8884 44.3619 37.2074 45.6196 45.2883C46.2812 49.5355 52.7215 47.7273 52.0649 43.5118C50.7625 35.1314 42.5021 30.9021 34.5046 28.7308C36.2057 25.8167 38.2986 23.2775 40.9588 21.0428C41.0094 20.9991 41.054 20.9505 41.1026 20.9049C47.2443 21.75 53.1837 20.1778 58.4179 16.5565C61.9371 14.1224 58.5994 8.32684 55.0455 10.7857C50.464 14.7423 41.8168 14.1115 41.7642 14.0252L38.7062 16.0447L40.196 14.4289L38.0724 13.2406L37.4505 15.3027V11.3382C37.4277 11.3342 37.4049 11.3253 37.3821 11.3223C29.5561 10.2957 21.9107 8.25642 14.546 5.42757C13.1702 4.89989 12.0653 5.30458 11.363 6.12685L11.2182 4.63903L9.52904 4.8017L9.22057 1.62371C9.18784 1.31027 8.90912 1.08016 8.59668 1.11091L0.516813 1.89052C0.201395 1.92028 -0.0277311 2.19999 0.0030172 2.51343ZM9.58161 5.38096L10.6905 5.27383L10.8512 6.93722C10.388 7.97175 10.3751 9.27806 10.9554 10.3304L10.0666 10.4177L9.58161 5.38096Z" fill="white"/>
</svg>
