<svg width="20" height="10" viewBox="0 0 20 10" fill="none" xmlns="http://www.w3.org/2000/svg">
<path d="M18 3V1.33C17.9974 0.978071 17.8564 0.641298 17.6076 0.39244C17.3587 0.143581 17.0219 0.00261668 16.67 5.20267e-10H1.34C0.986336 -9.8477e-06 0.647008 0.139795 0.395995 0.388935C0.144982 0.638075 0.00263929 0.976346 5.20266e-10 1.33V8.66C-9.8477e-06 9.01366 0.139795 9.35299 0.388935 9.60401C0.638075 9.85502 0.976346 9.99736 1.33 10H16.67C17.0219 9.99738 17.3587 9.85642 17.6076 9.60756C17.8564 9.3587 17.9974 9.02193 18 8.67V7H20V3H18ZM9.5 6V8L2 4H7.5V2L15 6H9.5Z" fill="white"/>
</svg>
