<svg width="18" height="18" viewBox="0 0 18 18" fill="none" xmlns="http://www.w3.org/2000/svg">
<path d="M16.9995 15.3879V12.9793C17.0093 12.5855 16.8738 12.2019 16.6186 11.9014C15.8991 11.0539 13.4315 10.5118 12.4534 10.72C11.691 10.8823 11.1575 11.6478 10.636 12.1684C8.62191 11.0254 6.9543 9.36108 5.80907 7.35095C6.33058 6.83049 7.09768 6.29811 7.26031 5.53715C7.46858 4.56247 6.92723 2.11066 6.08562 1.3883C5.7896 1.13422 5.41109 0.996238 5.02067 1.00008H2.60721C1.68762 1.00094 0.922555 1.82573 1.00628 2.75039C0.999995 10.72 7.22227 17 15.2458 16.9937C16.1754 17.0776 17.0033 16.3087 16.9995 15.3879Z" stroke="white" stroke-linecap="round" stroke-linejoin="round"/>
</svg>
