<svg width="48" height="48" viewBox="0 0 48 48" fill="none" xmlns="http://www.w3.org/2000/svg">
<path d="M38.5711 47.6795C39.3799 46.4654 40.5506 45.1457 40.4327 43.7289L38.1823 16.8978C38.0334 15.1128 39.5598 13.7394 47.5438 2.12746C48.6545 0.514123 47.5479 -0.697951 45.8725 0.456208C34.2772 8.42983 32.8872 9.96871 31.1022 9.81772L4.27111 7.56732C2.83978 7.44942 1.51602 8.63047 0.320492 9.42886C-0.153168 9.74326 -0.0952542 10.1363 0.450799 10.2997L23.6767 17.268C24.2207 17.4314 24.3572 17.9134 23.9787 18.3374L11.103 32.7892C10.7245 33.2132 9.94882 33.5607 9.38002 33.5607H2.91838C1.54911 33.5607 0.0247122 34.9403 1.23885 35.6125L7.51433 39.0812C8.01282 39.3563 8.64367 39.9893 8.92084 40.4877L12.3895 46.7632C13.0493 47.9567 14.4414 46.4468 14.4414 45.0837V38.62C14.4414 38.0512 14.7888 37.2755 15.2129 36.897L29.6647 24.0213C30.0908 23.6428 30.5706 23.7814 30.734 24.3233L37.7024 47.5492C37.8638 48.0953 38.2567 48.1532 38.5711 47.6795Z" fill="white"/>
</svg>
