<svg width="25" height="32" viewBox="0 0 25 32" fill="none" xmlns="http://www.w3.org/2000/svg">
<path fill-rule="evenodd" clip-rule="evenodd" d="M0.289778 1.456C1.85437e-07 2.02489 0 2.77156 0 4.26667V27.7333C0 29.2267 1.85437e-07 29.9733 0.289778 30.544C0.545819 31.0455 0.954061 31.4532 1.456 31.7084C2.02489 32 2.77156 32 4.26667 32H4.62222C6.11555 32 6.86222 32 7.43289 31.7102C7.9351 31.4545 8.34337 31.0462 8.59911 30.544C8.88889 29.9751 8.88889 29.2284 8.88889 27.7333V4.26667C8.88889 2.77333 8.88889 2.02667 8.59911 1.456C8.34337 0.953791 7.9351 0.545517 7.43289 0.289778C6.864 1.85437e-07 6.11733 0 4.62222 0H4.26667C2.77333 0 2.02667 1.85437e-07 1.456 0.289778C0.953791 0.545517 0.545517 0.953791 0.289778 1.456ZM16.2898 1.456C16 2.02489 16 2.77156 16 4.26667V27.7333C16 29.2267 16 29.9733 16.2916 30.544C16.5471 31.0453 16.9547 31.4529 17.456 31.7084C18.0249 32 18.7716 32 20.2667 32H20.6222C22.1156 32 22.8622 32 23.4329 31.7102C23.9344 31.4542 24.3421 31.0459 24.5973 30.544C24.8889 29.9751 24.8889 29.2284 24.8889 27.7333V4.26667C24.8889 2.77333 24.8889 2.02667 24.5991 1.456C24.3434 0.953791 23.9351 0.545517 23.4329 0.289778C22.864 1.85437e-07 22.1173 0 20.6222 0H20.2667C18.7733 0 18.0267 1.85437e-07 17.456 0.289778C16.9545 0.545819 16.5451 0.954062 16.2898 1.456Z" fill="white"/>
</svg>
