<svg width="19" height="16" viewBox="0 0 19 16" fill="none" xmlns="http://www.w3.org/2000/svg">
<path fill-rule="evenodd" clip-rule="evenodd" d="M4.42226 15.272C4.57129 14.9876 4.57129 14.6142 4.57129 13.8667L4.57129 2.13333C4.57129 1.38667 4.57129 1.01333 4.42226 0.728001C4.29058 0.477227 4.08063 0.273417 3.82249 0.145779C3.52992 1.24045e-06 3.14592 1.34853e-06 2.377 1.41575e-06L2.19415 1.43174e-06C1.42615 1.49888e-06 1.04215 1.51755e-06 0.74866 0.14489C0.490381 0.27276 0.280411 0.476897 0.148888 0.728001C-0.000140338 1.01245 -0.000140514 1.38578 -0.000140449 2.13333L-0.000139423 13.8667C-0.000139358 14.6133 -0.000139116 14.9867 0.148889 15.272C0.280412 15.5231 0.490382 15.7272 0.748661 15.8551C1.04123 16 1.42523 16 2.19415 16L2.377 16C3.145 16 3.529 16 3.82249 15.8551C4.08077 15.7272 4.29074 15.5231 4.42226 15.272Z" fill="white"/>
<path d="M18.5713 15.2621L18.5713 0.721421C18.5713 0.456849 18.4513 0.24073 18.2106 0.096138C18.1144 0.0238421 17.946 5.4664e-08 17.826 6.5153e-08C17.706 7.56421e-08 17.6099 0.0238421 17.4892 0.0961381L4.89505 7.35496C4.65432 7.52339 4.51049 7.73951 4.51049 8.00409C4.51049 8.24482 4.65509 8.46093 4.89505 8.62937L17.4892 15.8882C17.9222 16.2004 18.5705 15.8159 18.5705 15.2629L18.5713 15.2621Z" fill="white"/>
</svg>
