<svg width="15" height="16" viewBox="0 0 15 16" fill="none" xmlns="http://www.w3.org/2000/svg">
<path d="M14.7002 3.55158L14.6789 3.05047L14.18 2.99923C12.2635 2.8024 10.6159 2.08722 9.57116 1.52191C8.42692 0.902748 7.73332 0.321868 7.72696 0.316507L7.35238 0L6.97755 0.31605C6.97066 0.32185 6.27706 0.902748 5.13284 1.52189C4.08812 2.0872 2.44054 2.80239 0.524025 2.99921L0.0250705 3.05045L0.00376736 3.55157C-4.68266e-05 3.64128 -0.0801974 5.77852 0.743033 8.36652C1.22881 9.89372 1.93033 11.2621 2.82812 12.4337C3.95549 13.9049 5.39343 15.0646 7.10203 15.8806L7.35199 16L7.60195 15.8806C9.31055 15.0646 10.7485 13.905 11.8759 12.4337C12.7737 11.2621 13.4752 9.89371 13.961 8.36654C14.7842 5.77856 14.704 3.64131 14.7002 3.55158ZM7.35199 14.7106C5.92659 13.9863 4.72019 12.9901 3.7629 11.7463C2.94745 10.6869 2.30732 9.44381 1.86024 8.05167C1.31381 6.35009 1.19126 4.83257 1.16646 4.08741C1.93518 3.97327 2.71233 3.78121 3.48367 3.51446C4.23772 3.25369 4.98822 2.92121 5.7143 2.52627C6.45104 2.12555 7.01165 1.74282 7.35197 1.49254C7.6923 1.7428 8.25293 2.12555 8.98966 2.52627C9.71575 2.92122 10.4662 3.25369 11.2203 3.51446C11.9918 3.7813 12.7692 3.97336 13.5382 4.0875C13.5143 4.82534 13.3941 6.32149 12.8554 8.01493C12.4104 9.41395 11.771 10.6633 10.955 11.7282C9.99545 12.9804 8.78431 13.9828 7.35199 14.7106Z" fill="white"/>
<path d="M10.5134 5.36124L9.70412 6.17055L6.68791 9.18677L5.15926 7.65813L4.9514 7.45027L4.54126 7.8604V7.86042L4.1311 8.27058L6.68791 10.8274L11.3337 6.18155L10.5134 5.36124Z" fill="white"/>
</svg>
