<svg width="61" height="18" viewBox="0 0 61 18" fill="none" xmlns="http://www.w3.org/2000/svg">
<path fill-rule="evenodd" clip-rule="evenodd" d="M0 11.7853C0.142584 10.9839 0.545752 10.4922 1.33734 10.4627C1.26851 9.62688 1.42584 8.92379 1.78967 8.34362C1.96176 8.0732 2.17809 7.83229 2.44359 7.62087C3.36302 6.87353 4.40535 6.79486 5.54111 6.58836C6.64245 6.38678 7.74379 6.21961 8.84021 6.09178C10.1677 5.93444 11.5001 5.83119 12.8326 5.79186C13.4471 5.77219 13.2996 5.80661 13.7913 5.43294C16.1857 3.58427 18.7916 2.06501 21.5203 0.752254C22.4693 0.270418 23.6886 0.0393335 25.1194 0C35.5 -7.89569e-10 37 0.5 37 0.5C40.5 1 40.5 1 46.1763 2.37476L52.2546 5.26086C53.9902 5.37394 55.7208 5.48702 57.4564 5.60502C58.5184 5.57552 59.3297 5.93936 59.6394 7.08987V10.6053C61.1095 10.9839 60.1508 14.3715 59.4919 15.1139C58.9118 15.7678 58.3808 15.6941 57.6039 15.6941H52.9675C53.8574 8.99263 47.0281 7.56187 44.2158 11.2101C43.2865 12.4146 43.1439 14.0568 43.5324 15.9891H13.988C15.0647 11.0232 11.8591 9.00246 8.90904 9.29254C5.11336 9.66621 4.11527 12.7096 4.76919 16.0481H1.47992C0.545752 16.0874 0.108167 15.3401 0 14.0765V11.7853ZM9.85305 12.4245V13.7815H11.2101C11.0478 13.1177 10.5217 12.5916 9.85305 12.4245ZM11.2101 14.6665H9.85305V16.0235C10.5217 15.8612 11.0478 15.3352 11.2101 14.6665ZM9.41546 16.0776H9.40563H9.41054H9.41546ZM8.96804 16.0235V14.6665H7.61103C7.77329 15.3352 8.29937 15.8612 8.96804 16.0235ZM7.61103 13.7815H8.96804V12.4245C8.29937 12.5916 7.77329 13.1128 7.61103 13.7815ZM48.5769 12.4245V13.7815H49.9339C49.7716 13.1177 49.2456 12.5916 48.5769 12.4245ZM49.988 14.2191V14.2289V14.224V14.2191ZM49.9388 14.6665H48.5769V16.0235C49.2456 15.8612 49.7716 15.3352 49.9388 14.6665ZM48.1442 16.0776H48.1344H48.1393H48.1442ZM47.6968 16.0235V14.6665H46.3398C46.502 15.3352 47.0281 15.8612 47.6968 16.0235ZM46.3349 13.7815H47.6919V12.4245C47.0281 12.5916 46.502 13.1128 46.3349 13.7815ZM16.2595 5.26086V6.88336H26.9041L28 1.17509L24.6523 1.23901C22.8577 1.45042 22.5676 1.50942 20.9402 2.37476C19.5979 3.08768 18.3737 3.86943 17.0707 4.72002C16.8003 4.89702 16.525 5.07894 16.2595 5.26086ZM40.5 2V6.88828L45 7L47 6.5L46.5 5.5C44.2581 3.56364 44 3.5 44 3.5L40.5 2ZM29 1.17509L28 7H39.2175V2L34.1087 1.58754L29 1.17509ZM9.41054 10.4578C11.4903 10.4578 13.1816 12.1442 13.1816 14.2289C13.1816 16.3087 11.4952 18 9.41054 18C7.33078 18 5.63944 16.3136 5.63944 14.2289C5.63944 12.1442 7.32587 10.4578 9.41054 10.4578ZM48.1344 10.4578C50.2141 10.4578 51.9055 12.1442 51.9055 14.2289C51.9055 16.3087 50.2191 18 48.1344 18C46.0546 18 44.3633 16.3136 44.3633 14.2289C44.3682 12.1442 46.0546 10.4578 48.1344 10.4578Z" fill="white"/>
</svg>
