<svg width="115" height="115" viewBox="0 0 115 115" fill="none" xmlns="http://www.w3.org/2000/svg">
<path d="M57.501 0C25.761 0 0.000976562 25.76 0.000976562 57.5C0.000976562 89.24 25.761 115 57.501 115C89.241 115 115.001 89.24 115.001 57.5C115.001 25.76 89.241 0 57.501 0ZM78.2585 36.455C84.411 36.455 89.356 41.4 89.356 47.5525C89.356 53.705 84.411 58.65 78.2585 58.65C72.106 58.65 67.161 53.705 67.161 47.5525C67.1035 41.4 72.106 36.455 78.2585 36.455ZM43.7585 27.37C51.2335 27.37 57.3285 33.465 57.3285 40.94C57.3285 48.415 51.2335 54.51 43.7585 54.51C36.2835 54.51 30.1885 48.415 30.1885 40.94C30.1885 33.4075 36.226 27.37 43.7585 27.37ZM43.7585 79.8675V101.43C29.9585 97.1175 19.0335 86.48 14.2035 72.91C20.241 66.47 35.306 63.1925 43.7585 63.1925C46.806 63.1925 50.6585 63.6525 54.6835 64.4575C45.2535 69.46 43.7585 76.0725 43.7585 79.8675ZM57.501 103.5C55.9485 103.5 54.4535 103.442 52.9585 103.27V79.8675C52.9585 71.7025 69.8635 67.62 78.2585 67.62C84.411 67.62 95.0485 69.8625 100.338 74.2325C93.611 91.31 76.9935 103.5 57.501 103.5Z" fill="white"/>
</svg>
