<svg width="11" height="10" viewBox="0 0 11 10" fill="none" xmlns="http://www.w3.org/2000/svg">
<path fill-rule="evenodd" clip-rule="evenodd" d="M7.61641 5.8203C7.46122 5.93361 7.39656 6.13253 7.45568 6.31666L8.36158 9.10518L5.98936 7.38145C5.83295 7.26814 5.62356 7.26814 5.46775 7.38145L3.09554 9.10518L4.00206 6.31543C4.06117 6.13253 3.99651 5.93361 3.8407 5.8203L1.46788 4.09656H4.4005C4.59326 4.09656 4.76323 3.97278 4.82235 3.78988L5.72887 1.00074L6.63477 3.78926C6.66343 3.87858 6.71974 3.95649 6.79556 4.01172C6.87139 4.06696 6.96281 4.09667 7.05662 4.09656H9.98986L7.61641 5.8203ZM10.9413 3.78741C10.8816 3.60389 10.7122 3.48073 10.5195 3.48073H7.18163L6.15071 0.306684C6.09098 0.123172 5.92162 0 5.72887 0C5.53611 0 5.36614 0.123167 5.30702 0.30669L4.27548 3.48073H0.937641C0.744881 3.48073 0.575524 3.60389 0.515784 3.78741C0.456665 3.97093 0.521329 4.16985 0.677136 4.28316L3.37759 6.24461L2.34544 9.41926C2.28632 9.60278 2.35099 9.8017 2.50741 9.91501C2.585 9.97167 2.67677 10 2.76729 10C2.85906 10 2.95082 9.97167 3.02841 9.9144L5.72887 7.95295L8.42809 9.9144C8.5839 10.0283 8.7939 10.0283 8.95032 9.91501C9.10613 9.8017 9.17079 9.60278 9.11167 9.41865L8.07953 6.24461L10.78 4.28316C10.9364 4.16985 11.0011 3.97093 10.9413 3.78741H10.9413Z" fill="white"/>
</svg>
