<svg width="11" height="10" viewBox="0 0 11 10" fill="none" xmlns="http://www.w3.org/2000/svg">
<path fill-rule="evenodd" clip-rule="evenodd" d="M10.4468 3.78673C10.3871 3.60383 10.2177 3.48066 10.025 3.48066H6.68781L5.65691 0.306679V0.306068C5.59656 0.123164 5.42721 0 5.23445 0C5.04232 0 4.87234 0.123164 4.81261 0.306684L3.7811 3.48066H0.443927C0.251176 3.48066 0.0818169 3.60383 0.0220832 3.78673C-0.0376505 3.96963 0.0263908 4.16916 0.182816 4.28308L2.88322 6.24511L1.85171 9.41971C1.79197 9.60323 1.85787 9.80276 2.01429 9.91545C2.09188 9.97149 2.18303 9.9999 2.27416 9.9999C2.36531 9.9999 2.45646 9.97149 2.53466 9.91483L5.23445 7.95342L7.93363 9.91483C8.08943 10.0281 8.29943 10.0281 8.45524 9.91545C8.61166 9.80276 8.67693 9.60323 8.6172 9.4191L7.58569 6.24511L10.2867 4.28309C10.4425 4.16916 10.5072 3.96963 10.4468 3.78673" fill="white"/>
</svg>
