<svg width="24" height="24" viewBox="0 0 24 24" fill="none" xmlns="http://www.w3.org/2000/svg">
<path d="M12 0C5.36623 0 0 5.36623 0 12C0 18.6338 5.36623 24 12 24C18.6338 24 24 18.6338 24 12C24 5.36623 18.6338 0 12 0ZM12 1.55844C17.761 1.55844 22.4416 6.23896 22.4416 12C22.4416 17.761 17.761 22.4416 12 22.4416C6.23896 22.4416 1.55844 17.761 1.55844 12C1.55844 6.23896 6.23896 1.55844 12 1.55844ZM2.88416 9.29351C2.63948 10.2909 2.49351 11.2156 2.49351 12.0987C10.0104 13.6727 8.80519 15.3403 10.1818 21.3351C10.774 21.4442 11.3766 21.5065 12 21.5065C12.6234 21.5065 13.226 21.4442 13.8182 21.3351C15.1948 15.3403 13.9896 13.6727 21.5065 12.0987C21.4753 11.1169 21.3506 10.1039 21.1169 9.29351C16.7117 8.19221 14.3429 7.63636 12 7.63636C9.65714 7.63636 7.28831 8.19221 2.88416 9.29351ZM12 8.20779C14.0883 8.20779 15.7922 9.91169 15.7922 12C15.7922 14.0883 14.0883 15.7922 12 15.7922C9.91169 15.7922 8.20779 14.0883 8.20779 12C8.20779 9.91169 9.91169 8.20779 12 8.20779ZM12 9.14286C10.4156 9.14286 9.14286 10.4156 9.14286 12C9.14286 13.5844 10.4156 14.8571 12 14.8571C13.5844 14.8571 14.8571 13.5844 14.8571 12C14.8571 10.4156 13.5844 9.14286 12 9.14286Z" fill="#777D92"/>
</svg>
