<svg width="55" height="24" viewBox="0 0 55 24" fill="none" xmlns="http://www.w3.org/2000/svg">
<path fill-rule="evenodd" clip-rule="evenodd" d="M11.1667 16.7982V18.5506H12.9191C12.7082 17.6931 12.0288 17.009 11.1667 16.7982ZM12.9191 19.6986H11.1667V21.451C12.0288 21.2401 12.7082 20.5607 12.9191 19.6986ZM10.0234 21.451V19.6986H8.27093C8.48178 20.5607 9.1612 21.2401 10.0234 21.451ZM8.26624 18.5553H10.0187V16.8028C9.1612 17.0137 8.48178 17.6931 8.26624 18.5553ZM42.195 16.7982V18.5506H43.9475C43.7366 17.6931 43.0572 17.009 42.195 16.7982ZM43.9475 19.6986H42.195V21.451C43.0572 21.2401 43.7366 20.5607 43.9475 19.6986ZM41.0517 21.451V19.6986H39.2993C39.5055 20.5607 40.1849 21.2401 41.0517 21.451ZM39.2946 18.5553H41.0471V16.8028C40.1849 17.0137 39.5055 17.6931 39.2946 18.5553ZM42.0123 1.34956H43.6617C46.042 1.45733 47.0213 1.37299 47.9678 2.09458C49.1392 2.98954 49.5984 6.94423 50.0857 8.77163C50.1185 8.89346 49.9779 9.00591 49.8514 9.00591H42.584C42.4574 9.00591 42.3637 8.90283 42.3497 8.77163L41.778 1.57916C41.7686 1.45733 41.8858 1.34956 42.0123 1.34956ZM30.9682 1.39173H25.5797C23.1198 1.39173 19.0714 5.43545 18.0124 8.70603C17.9609 8.86534 18.1483 9.0106 18.317 9.0106H30.1154C30.2841 9.0106 30.3966 8.87472 30.42 8.70603L31.2775 1.6963C31.2915 1.52761 31.1322 1.39173 30.9682 1.39173ZM33.3017 1.36362H39.8944C40.0209 1.36362 40.1193 1.47139 40.1287 1.5979L40.63 8.77632C40.6394 8.90283 40.5223 9.0106 40.3958 9.0106H32.4442C32.3177 9.0106 32.1959 8.90283 32.2099 8.77632L33.0674 1.5979C33.0815 1.4667 33.1705 1.36362 33.3017 1.36362ZM10.595 14.2538C13.2846 14.2538 15.4681 16.4374 15.4681 19.1269C15.4681 21.8165 13.2846 24 10.595 24C7.90545 24 5.72193 21.8165 5.72193 19.1269C5.72193 16.4374 7.90545 14.2538 10.595 14.2538ZM0.848854 14.4741C1.09719 14.3616 1.36896 14.3101 1.66416 14.3148C1.6501 12.7779 1.75318 11.4378 2.10929 10.4866C2.24049 9.93836 2.47946 9.54008 2.79808 9.24957C3.80081 8.35461 12.7551 7.56742 14.6434 7.32377C16.9628 5.05591 19.5446 2.98017 22.2951 1.01688C23.0588 0.370259 24.1506 0.0516346 25.5282 0.0188351L47.2743 9.24333e-05C48.919 -0.00927887 50.1841 0.693569 50.99 2.27263L52.8034 7.49713L53.6888 10.2795L54.1903 14.1485C54.1903 14.1485 54.2091 14.371 54.1903 14.61V17.0746C54.0263 18.8926 53.5296 20.2983 52.0724 20.4811H47.6632C47.7569 18.3444 47.3539 16.5967 46.3746 15.2894C42.8182 10.5381 35.101 13.3683 35.6211 20.4951H16.6723C16.8316 18.2179 16.4005 16.4889 15.4587 15.2472C11.9117 10.5662 3.66024 13.0918 4.63486 20.6404H1.70633C-0.0601623 20.6404 -0.636498 15.1347 0.848854 14.4741ZM41.6234 14.2538C44.313 14.2538 46.4965 16.4374 46.4965 19.1269C46.4965 21.8165 44.313 24 41.6234 24C38.9338 24 36.7503 21.8165 36.7503 19.1269C36.7503 16.4374 38.9291 14.2538 41.6234 14.2538Z" fill="white"/>
</svg>
