<svg width="60" height="50" viewBox="0 0 60 50" fill="none" xmlns="http://www.w3.org/2000/svg">
<path d="M4.75965 21.3393C22.8041 13.4013 46.1535 3.72336 49.3777 2.38358C57.832 -1.12205 60.4264 -0.450871 59.1331 7.31418C58.2037 12.8953 55.5242 31.3709 53.3867 42.8713C52.1192 49.6915 49.2744 50.4995 44.8034 47.5489C42.653 46.1291 31.7979 38.95 29.441 37.2643C27.2907 35.7284 24.3246 33.88 28.0445 30.2402C29.3688 28.9443 38.0451 20.6578 44.8059 14.2093C45.6914 13.3626 44.5788 11.9711 43.5565 12.6501C34.4439 18.6933 21.8102 27.0805 20.202 28.1724C17.7728 29.822 15.4392 30.5783 11.252 29.3754C8.08716 28.4667 4.99715 27.3825 3.79418 26.9695C-0.839546 25.3793 0.260159 23.3193 4.75965 21.3393Z" fill="white"/>
</svg>
