<svg width="31" height="24" viewBox="0 0 31 24" fill="none" xmlns="http://www.w3.org/2000/svg">
<path d="M0.18422 22.9415L11.1257 12L0.181774 1.05607C-0.0606631 0.81363 -0.0606631 0.421815 0.181774 0.181826C0.424211 -0.060609 0.816028 -0.0606089 1.05602 0.181827L12.4383 11.5617C12.6807 11.8041 12.6807 12.1959 12.4383 12.4359L1.05846 23.8182C0.816025 24.0606 0.424208 24.0606 0.18422 23.8182C-0.0582161 23.5757 -0.058216 23.1839 0.18422 22.9415Z" fill="#B3B5BE" fill-opacity="0.3"/>
<path d="M9.18422 22.9415L20.1257 12L9.18177 1.05607C8.93934 0.81363 8.93934 0.421815 9.18177 0.181826C9.42421 -0.060609 9.81603 -0.0606089 10.056 0.181827L21.4383 11.5617C21.6807 11.8041 21.6807 12.1959 21.4383 12.4359L10.0585 23.8182C9.81602 24.0606 9.42421 24.0606 9.18422 23.8182C8.94178 23.5757 8.94178 23.1839 9.18422 22.9415Z" fill="#B3B5BE" fill-opacity="0.3"/>
<path d="M18.1842 22.9415L29.1257 12L18.1818 1.05607C17.9393 0.81363 17.9393 0.421815 18.1818 0.181826C18.4242 -0.060609 18.816 -0.0606089 19.056 0.181827L30.4383 11.5617C30.6807 11.8041 30.6807 12.1959 30.4383 12.4359L19.0585 23.8182C18.816 24.0606 18.4242 24.0606 18.1842 23.8182C17.9418 23.5757 17.9418 23.1839 18.1842 22.9415Z" fill="#B3B5BE" fill-opacity="0.3"/>
</svg>
