<svg width="31" height="34" viewBox="0 0 31 34" fill="none" xmlns="http://www.w3.org/2000/svg">
<path d="M1.06166 12.039C0.655923 9.27653 2.29261 6.71258 4.78993 5.46392L12.1613 1.77822C14.2365 0.740592 16.6792 0.740592 18.7544 1.77822L26.1258 5.46392C28.6232 6.71258 30.2598 9.27651 29.8541 12.039C28.6627 20.1512 24.4184 29.2994 17.4285 32.5631C16.1812 33.1456 14.7346 33.1456 13.4872 32.5631C6.49743 29.2994 2.25317 20.1512 1.06166 12.039Z" stroke="white" stroke-width="1.3" stroke-linecap="round" stroke-linejoin="round"/>
<path d="M8.02014 13.321V12.5454H14.8756V13.321H11.8795V22H11.0162V13.321H8.02014Z" fill="white"/>
<path d="M16.9669 12.5454L19.5844 16.6495H19.6444L22.262 12.5454H23.2822L20.24 17.2727L23.2822 22H22.262L19.6444 17.9421H19.5844L16.9669 22H15.9466L19.0351 17.2727L15.9466 12.5454H16.9669Z" fill="white"/>
</svg>
