<svg width="32" height="32" viewBox="0 0 32 32" fill="none" xmlns="http://www.w3.org/2000/svg">
<path d="M15.1568 0.0353031C11.6656 0.342239 8.65947 2.67236 7.58001 5.90434C7.27603 6.80001 7.15976 7.53307 7.15976 8.5476C7.15976 11.6545 8.76934 14.3605 11.5881 15.9703C11.9177 16.158 12.1442 16.321 12.0923 16.3399C12.0407 16.3588 11.7239 16.4464 11.3876 16.5404C11.0513 16.6344 10.4632 16.8284 10.0753 16.9789C4.27626 19.2398 0.319701 24.5453 0.0160504 30.5021C-0.00989974 30.9844 -0.0034965 31.4729 0.0288569 31.5859C0.138724 32.0182 0.733555 32.1433 1.04395 31.8115C1.20538 31.63 1.21852 31.5735 1.26368 30.8094C1.55452 25.4599 4.67056 20.8558 9.54515 18.5698C11.517 17.6424 13.2884 17.2228 15.4928 17.1477C17.9496 17.0664 20.2447 17.536 22.4168 18.5632C27.2849 20.8744 30.4461 25.5222 30.6982 30.7464C30.737 31.5794 30.7434 31.6296 30.9116 31.8112C31.1185 32.0303 31.4353 32.0616 31.7133 31.8863C31.9846 31.7172 32.0301 31.5229 31.9846 30.6585C31.7777 26.8692 30.2392 23.3988 27.5626 20.6929C25.4876 18.5884 22.9273 17.1226 20.0634 16.3775L19.7789 16.3086L20.4189 15.9389C22.7012 14.6237 24.1814 12.5753 24.6727 10.0509C24.8345 9.24931 24.8345 7.84622 24.6727 7.04426C24.0651 3.91252 21.7636 1.36917 18.6732 0.41081C17.5681 0.0666485 16.2945 -0.0711479 15.1568 0.0353031ZM16.9861 1.28787C18.1434 1.4446 19.5592 2.00199 20.4705 2.66583C23.231 4.67659 24.2525 8.17797 22.9917 11.2784C22.3194 12.9257 20.8972 14.3915 19.2421 15.1556C18.6668 15.4188 17.9813 15.6379 17.3673 15.757C16.7788 15.8697 15.1757 15.8697 14.5872 15.757C13.1003 15.4687 11.7684 14.7925 10.7082 13.7838C9.64794 12.769 9.0339 11.7293 8.62004 10.2449C8.47142 9.70613 8.45827 9.52458 8.45827 8.54728C8.45827 7.5703 8.47108 7.38842 8.62004 6.84997C9.02075 5.40933 9.63513 4.34451 10.6371 3.37374C12.312 1.75775 14.6846 0.97473 16.9861 1.28787Z" fill="white"/>
</svg>
