<svg width="21" height="20" viewBox="0 0 21 20" fill="none" xmlns="http://www.w3.org/2000/svg">
<path d="M1 12.7021V7.29786C1 6.5517 1.6049 5.9468 2.35107 5.9468H5.93033C6.23712 5.9468 6.53477 5.84239 6.77433 5.65074L10.9645 2.2986C11.8492 1.5909 13.1596 2.22072 13.1596 3.35359V16.6464C13.1596 17.7793 11.8492 18.4092 10.9645 17.7013L6.77433 14.3492C6.53477 14.1576 6.23712 14.0532 5.93033 14.0532H2.35107C1.6049 14.0532 1 13.4483 1 12.7021Z" stroke="white" stroke-width="2" stroke-linecap="round" stroke-linejoin="round"/>
<path d="M18.334 14.3422C19.2977 13.1938 19.8519 11.7575 19.9095 10.2593C19.967 8.76126 19.5245 7.28661 18.6519 6.06763" stroke="white" stroke-width="2" stroke-linecap="round" stroke-linejoin="round"/>
</svg>
