<svg width="17" height="16" viewBox="0 0 17 16" fill="none" xmlns="http://www.w3.org/2000/svg">
<path d="M2.21568 14.4033L4.66809 13.5478L5.09732 13.7723C6.08339 14.2868 7.17966 14.561 8.3293 14.561C12.1692 14.561 15.2898 11.3988 15.2898 7.88721C15.2898 4.37558 12.1692 1.21342 8.3293 1.21342C4.48944 1.21342 1.36882 4.37558 1.36882 7.88721C1.36882 9.1977 1.82125 10.5276 2.65303 11.6646L3.05326 12.2106L2.21452 14.402L2.21568 14.4033ZM1.3955 15.9686C1.29052 16.0054 1.17767 16.01 1.07027 15.9818C0.962878 15.9537 0.865425 15.894 0.789427 15.8098C0.713429 15.7255 0.66206 15.6203 0.641389 15.5066C0.620718 15.3928 0.631608 15.2752 0.672772 15.1677L1.73077 12.4011C0.765579 11.0785 0.20874 9.4962 0.20874 7.88721C0.20874 3.86595 3.68898 0 8.3293 0C12.9696 0 16.4499 3.86595 16.4499 7.88721C16.4499 11.9085 12.9696 15.7744 8.3293 15.7744C7.02789 15.7783 5.7436 15.4641 4.57876 14.8571L1.3955 15.9674V15.9686Z" fill="white"/>
<path d="M5.42916 9.1007H11.2296C11.6163 9.1007 11.8096 9.30294 11.8096 9.70741C11.8096 10.1119 11.6163 10.3141 11.2296 10.3141H5.42916C5.04247 10.3141 4.84912 10.1119 4.84912 9.70741C4.84912 9.30294 5.04247 9.1007 5.42916 9.1007ZM6.0092 5.46045H10.6495C11.0362 5.46045 11.2296 5.66269 11.2296 6.06716C11.2296 6.47163 11.0362 6.67387 10.6495 6.67387H6.0092C5.62251 6.67387 5.42916 6.47163 5.42916 6.06716C5.42916 5.66269 5.62251 5.46045 6.0092 5.46045Z" fill="white"/>
</svg>
